g Body_26_(3)
v 54 40.5 26 0.333333 0.239216 0.184314
v 54 40.5 24.5 0.333333 0.239216 0.184314
v 52.9 40.5 24.5 0.333333 0.239216 0.184314
v 52.9 40.5 26 0.333333 0.239216 0.184314
v 54 45 26 0.333333 0.239216 0.184314
v 52.9 45 26 0.333333 0.239216 0.184314
v 54 45 24.5 0.333333 0.239216 0.184314
v 52.9 45 24.5 0.333333 0.239216 0.184314
v 54 46.6 24 0.333333 0.239216 0.184314
v 54 46.6 32 0.333333 0.239216 0.184314
v 54 40 26 0.333333 0.239216 0.184314
v 54 40 24.5 0.333333 0.239216 0.184314
v 54 35 26 0.333333 0.239216 0.184314
v 54 35.5 26 0.333333 0.239216 0.184314
v 54 35.5 24.5 0.333333 0.239216 0.184314
v 54 35 24.5 0.333333 0.239216 0.184314
v 54 30 26 0.333333 0.239216 0.184314
v 54 30.5 26 0.333333 0.239216 0.184314
v 54 30.5 24.5 0.333333 0.239216 0.184314
v 54 30 24.5 0.333333 0.239216 0.184314
v 54 22.4 32 0.333333 0.239216 0.184314
v 54 25.5 26 0.333333 0.239216 0.184314
v 54 22.4 24 0.333333 0.239216 0.184314
v 54 25.5 24.5 0.333333 0.239216 0.184314
v 52.9 30.5 24.5 0.333333 0.239216 0.184314
v 52.9 30.5 26 0.333333 0.239216 0.184314
v 52.9 35 26 0.333333 0.239216 0.184314
v 52.9 35 24.5 0.333333 0.239216 0.184314
v 52.9 35.5 24.5 0.333333 0.239216 0.184314
v 52.9 35.5 26 0.333333 0.239216 0.184314
v 52.9 40 26 0.333333 0.239216 0.184314
v 52.9 40 24.5 0.333333 0.239216 0.184314
v 52.9 25.5 26 0.333333 0.239216 0.184314
v 52.9 25.5 24.5 0.333333 0.239216 0.184314
v 52.9 30 24.5 0.333333 0.239216 0.184314
v 52.9 30 26 0.333333 0.239216 0.184314
v 42.4 46.6 32 0.333333 0.239216 0.184314
v 42.4 22.4 32 0.333333 0.239216 0.184314
v 52.9 46.6 25.5 0.333333 0.239216 0.184314
v 52.9 46.6 28 0.333333 0.239216 0.184314
v 42.4 46.6 24 0.333333 0.239216 0.184314
v 42.9 46.6 25.5 0.333333 0.239216 0.184314
v 42.9 46.6 28 0.333333 0.239216 0.184314
v 42.9 45.5 28 0.333333 0.239216 0.184314
v 52.9 45.5 28 0.333333 0.239216 0.184314
v 52.9 45.5 25.5 0.333333 0.239216 0.184314
v 42.9 45.5 25.5 0.333333 0.239216 0.184314
v 42.9 45.5 24 0.333333 0.239216 0.184314
v 52.9 45.5 24 0.333333 0.239216 0.184314
v 42.9 45.5 31.5 0.333333 0.239216 0.184314
v 52.9 45.5 31.5 0.333333 0.239216 0.184314
v 52.9 23.5 31.5 0.333333 0.239216 0.184314
v 42.9 23.5 31.5 0.333333 0.239216 0.184314
v 52.9 23.5 28 0.333333 0.239216 0.184314
v 42.9 23.5 28 0.333333 0.239216 0.184314
v 52.9 22.4 28 0.333333 0.239216 0.184314
v 42.9 22.4 28 0.333333 0.239216 0.184314
v 42.4 22.4 24 0.333333 0.239216 0.184314
v 42.9 22.4 25.5 0.333333 0.239216 0.184314
v 52.9 22.4 25.5 0.333333 0.239216 0.184314
v 52.9 23.5 24 0.333333 0.239216 0.184314
v 52.9 23.5 25.5 0.333333 0.239216 0.184314
v 42.9 23.5 25.5 0.333333 0.239216 0.184314
v 42.9 23.5 24 0.333333 0.239216 0.184314
v 42.4 29 24 0.333333 0.239216 0.184314
v 42.4 25.4 24 0.333333 0.239216 0.184314
v 42.9 25.4 24 0.333333 0.239216 0.184314
v 42.9 29 24 0.333333 0.239216 0.184314
v 42.4 25.4 26.3 0.333333 0.239216 0.184314
v 42.9 25.4 26.3 0.333333 0.239216 0.184314
v 42.9 29 24.5 0.333333 0.239216 0.184314
v 42.4 29 24.5 0.333333 0.239216 0.184314
v 42.9 30 24.5 0.333333 0.239216 0.184314
v 42.4 30 24.5 0.333333 0.239216 0.184314
v 42.9 30 26 0.333333 0.239216 0.184314
v 42.4 30 26 0.333333 0.239216 0.184314
v 42.9 29 26 0.333333 0.239216 0.184314
v 42.4 29 26 0.333333 0.239216 0.184314
v 42.4 29 26.3 0.333333 0.239216 0.184314
v 42.9 29 26.3 0.333333 0.239216 0.184314
v 42.9 45 26 0.333333 0.239216 0.184314
v 42.9 45 24.5 0.333333 0.239216 0.184314
v 42.9 40 26 0.333333 0.239216 0.184314
v 42.9 40.5 26 0.333333 0.239216 0.184314
v 42.9 40.5 24.5 0.333333 0.239216 0.184314
v 42.9 40 24.5 0.333333 0.239216 0.184314
v 42.9 35 26 0.333333 0.239216 0.184314
v 42.9 35.5 26 0.333333 0.239216 0.184314
v 42.9 35.5 24.5 0.333333 0.239216 0.184314
v 42.9 35 24.5 0.333333 0.239216 0.184314
v 42.9 30.5 26 0.333333 0.239216 0.184314
v 42.9 30.5 24.5 0.333333 0.239216 0.184314
v 42.4 45 24.5 0.333333 0.239216 0.184314
v 42.4 45 26 0.333333 0.239216 0.184314
v 42.4 40 24.5 0.333333 0.239216 0.184314
v 42.4 40.5 24.5 0.333333 0.239216 0.184314
v 42.4 40.5 26 0.333333 0.239216 0.184314
v 42.4 40 26 0.333333 0.239216 0.184314
v 42.4 35 24.5 0.333333 0.239216 0.184314
v 42.4 35.5 24.5 0.333333 0.239216 0.184314
v 42.4 35.5 26 0.333333 0.239216 0.184314
v 42.4 35 26 0.333333 0.239216 0.184314
v 42.4 30.5 26 0.333333 0.239216 0.184314
v 42.4 30.5 24.5 0.333333 0.239216 0.184314
vn 0 1 0
vn 0 0 -1
vn 0 -1 0
vn -0 0 1
vn 1 0 -0
vn 0 1 0
vn 0 0 -1
vn 0 -1 0
vn -0 0 1
vn 0 1 0
vn 0 0 -1
vn 0 -1 0
vn -0 0 1
vn -0 1 -0
vn 0 -0 -1
vn -0 -1 -0
vn 0 0 1
vn 0 1 0
vn -0 -0 -1
vn -0 -0 1
vn 0 -1 0
vn -0 -0 -1
vn 0 1 0
vn 0 -1 0
vn -1 0 0
vn -0 -0 1
vn 0 1 0
vn -0 -0 -1
vn -0 -1 -0
vn -0 -0 1
vn 0 -0 -1
vn -0 -1 -0
vn 1 0 -0
vn -1 0 0
vn -0 0 1
vn 0 -1 0
vn 0 0 -1
vn 0 1 0
vn -0 0 1
vn 0 -1 0
vn 0 0 -1
vn 0 1 0
vn -0 0 1
vn 0 -1 0
vn 0 0 -1
vn 0 1 0
vt 0.75 13.6
vt -0.75 13.6
vt -0.75 12.5
vt 0.75 12.5
vt -13.6 2.25
vt -13.6 -2.25
vt -12.5 -2.25
vt -12.5 2.25
vt 0.75 13.6
vt -0.75 13.6
vt -0.75 12.5
vt 0.75 12.5
vt 13.6 -2.25
vt 13.6 2.25
vt 12.5 2.25
vt 12.5 -2.25
vt 8 12.1
vt 0 12.1
vt 6 10.5
vt 6 5.5
vt 6 6
vt 7.5 6
vt 7.5 5.5
vt 7.5 10.5
vt 6 0.5
vt 6 1
vt 7.5 1
vt 7.5 0.5
vt 6 -4.5
vt 6 -4
vt 7.5 -4
vt 7.5 -4.5
vt -0 -12.1
vt 6 -9
vt 8 -12.1
vt 7.5 -9
vt 0.75 13.6
vt -0.75 13.6
vt -0.75 12.5
vt 0.75 12.5
vt -13.6 2.25
vt -13.6 -2.25
vt -12.5 -2.25
vt -12.5 2.25
vt 0.75 13.6
vt -0.75 13.6
vt -0.75 12.5
vt 0.75 12.5
vt 13.6 -2.25
vt 13.6 2.25
vt 12.5 2.25
vt 12.5 -2.25
vt 0.75 13.6
vt -0.75 13.6
vt -0.75 12.5
vt 0.75 12.5
vt -13.6 2.25
vt -13.6 -2.25
vt -12.5 -2.25
vt -12.5 2.25
vt 0.75 13.6
vt -0.75 13.6
vt -0.75 12.5
vt 0.75 12.5
vt 13.6 -2.25
vt 13.6 2.25
vt 12.5 2.25
vt 12.5 -2.25
vt -0.75 12.5
vt -0.75 13.6
vt 0.75 13.6
vt 0.75 12.5
vt -12.5 -2.25
vt -13.6 -2.25
vt -13.6 2.25
vt -12.5 2.25
vt 12.5 2.25
vt 13.6 2.25
vt 13.6 -2.25
vt 12.5 -2.25
vt -0.75 12.5
vt -0.75 13.6
vt 0.75 13.6
vt 0.75 12.5
vt 15 48.6
vt 15 24.4
vt 26.6 24.4
vt 26.6 48.6
vt -8 6.1
vt -6.5 5
vt -4 5
vt -8 -5.5
vt -6.5 -5
vt 0 -5.5
vt -4 -5
vt 0 6.1
vt -5 -95.4
vt -5 -94.3
vt 5 -94.3
vt 5 -95.4
vt -5 -95.4
vt -5 -94.3
vt 5 -94.3
vt 5 -95.4
vt 7.5 -5
vt 7.5 5
vt 6 5
vt 6 -5
vt -0 -5
vt 3.5 -5
vt 3.5 5
vt 0 5
vt 25.5 47.5
vt 25.5 25.5
vt 15.5 25.5
vt 15.5 47.5
vt 0 -5
vt 0 5
vt -3.5 5
vt -3.5 -5
vt 5 -117.4
vt 5 -118.5
vt -5 -118.5
vt -5 -117.4
vt 8 6.1
vt 0 6.1
vt 4 5
vt -0 -5.5
vt 4 -5
vt 8 -5.5
vt 6.5 -5
vt 6.5 5
vt -7.5 -11
vt -7 0.5
vt -7 1
vt -7 5.5
vt -7 6
vt -7 -4
vt -7 -4.5
vt -5.5 0.5
vt -5.5 1
vt 0 11
vt -5.5 5.5
vt -7 -9
vt -5.5 -4.5
vt -5.5 -4
vt -3.5 -12.1
vt -3.5 -11
vt -6 -11
vt -5.5 6
vt -5.5 -9
vt -7 10.5
vt -5.5 10.5
vt -6 11
vt -3.5 12.1
vt -6 12.1
vt 0 -11
vt -7.5 11
vt -6 -12.1
vt -3.5 11
vt 5 -117.4
vt 5 -118.5
vt -5 -118.5
vt -5 -117.4
vt -7.5 -5
vt -6 -5
vt -6 5
vt -7.5 5
vt 15 31
vt 15 48.6
vt 15.5 47.5
vt 26.6 48.6
vt 25.5 47.5
vt 26.6 24.4
vt 25.5 25.5
vt 15 24.4
vt 15.5 25.5
vt 15 27.4
vt 15.5 27.4
vt 15.5 31
vt 1.15 -1.9
vt 1.15 -2.4
vt -1.15 -2.4
vt -1.15 -1.9
vt -1.15 -2.4
vt -1.15 -1.9
vt -0.65 -1.9
vt -0.65 -2.4
vt -2.5 2.25
vt -2 2.25
vt -2 1.25
vt -2.5 1.25
vt 0.75 2.5
vt 0.75 2
vt -0.75 2
vt -0.75 2.5
vt 2.5 1.25
vt 2 1.25
vt 2 2.25
vt 2.5 2.25
vt -1.9 -1.8
vt -2.4 -1.8
vt -2.4 1.8
vt -1.9 1.8
vt 1.15 -1.9
vt 1.15 -2.4
vt 0.85 -2.4
vt 0.85 -1.9
vt 3.5 12.1
vt 5.5 10.5
vt 6 11
vt 7 10.5
vt 0 11
vt 5.5 5.5
vt 5.5 6
vt 3.5 11
vt 7.5 11
vt 7 6
vt 7 5.5
vt 5.5 0.5
vt 5.5 1
vt 7 1
vt 7 0.5
vt 5.5 -4.5
vt 5.5 -4
vt 7 -4
vt 3.5 -12.1
vt 6 -12.1
vt 6 -11
vt -0 -11
vt 3.5 -11
vt 5.2 -9.1
vt 7 -4.5
vt 7.5 -9.1
vt 5.2 -5.5
vt 5.5 -5.5
vt 7.5 -5.5
vt 6 12.1
vt 7.5 -11
vt 7 -5.5
vt -8 12.1
vt -7.5 10.5
vt -6 10.5
vt -7.5 5.5
vt -7.5 6
vt -6 6
vt -6 5.5
vt 0 12.1
vt -7.5 0.5
vt -7.5 1
vt -6 1
vt -6 0.5
vt -5.7 -5.5
vt -6 -4
vt -6 -4.5
vt -7.5 -4.5
vt -8 -5.5
vt -7.5 -4
vt -7.5 -5.5
vt -8 -12.1
vt 0 -12.1
vt -5.7 -9.1
vt -6 -5.5
vt -8 -9.1
vt 2 2.25
vt 2 -2.25
vt 2.5 -2.25
vt 2.5 2.25
vt -0.75 2
vt 0.75 2
vt 0.75 2.5
vt -0.75 2.5
vt -2 -2.25
vt -2 2.25
vt -2.5 2.25
vt -2.5 -2.25
vt -0.75 2
vt 0.75 2
vt 0.75 2.5
vt -0.75 2.5
vt 2 2.25
vt 2 -2.25
vt 2.5 -2.25
vt 2.5 2.25
vt -0.75 2
vt 0.75 2
vt 0.75 2.5
vt -0.75 2.5
vt -2 -2.25
vt -2 2.25
vt -2.5 2.25
vt -2.5 -2.25
vt -0.75 2
vt 0.75 2
vt 0.75 2.5
vt -0.75 2.5
vt 2 2.25
vt 2 -2.25
vt 2.5 -2.25
vt 2.5 2.25
vt -0.75 2
vt 0.75 2
vt 0.75 2.5
vt -0.75 2.5
vt -2 -2.25
vt -2 2.25
vt -2.5 2.25
vt -2.5 -2.25
vt -0.75 2
vt 0.75 2
vt 0.75 2.5
vt -0.75 2.5
f 1/1/1 2/2/1 3/3/1
f 3/3/1 4/4/1 1/1/1
f 5/5/2 1/6/2 4/7/2
f 4/7/2 6/8/2 5/5/2
f 7/9/3 5/10/3 6/11/3
f 6/11/3 8/12/3 7/9/3
f 2/13/4 7/14/4 8/15/4
f 8/15/4 3/16/4 2/13/4
f 9/17/5 10/18/5 5/19/5
f 10/18/5 11/20/5 1/21/5
f 1/21/5 5/19/5 10/18/5
f 2/22/5 1/21/5 11/20/5
f 11/20/5 12/23/5 2/22/5
f 9/17/5 7/24/5 2/22/5
f 2/22/5 12/23/5 9/17/5
f 10/18/5 13/25/5 14/26/5
f 14/26/5 11/20/5 10/18/5
f 15/27/5 14/26/5 13/25/5
f 13/25/5 16/28/5 15/27/5
f 9/17/5 12/23/5 15/27/5
f 15/27/5 16/28/5 9/17/5
f 10/18/5 17/29/5 18/30/5
f 18/30/5 13/25/5 10/18/5
f 19/31/5 18/30/5 17/29/5
f 17/29/5 20/32/5 19/31/5
f 9/17/5 16/28/5 19/31/5
f 19/31/5 20/32/5 9/17/5
f 21/33/5 22/34/5 17/29/5
f 17/29/5 10/18/5 21/33/5
f 23/35/5 24/36/5 22/34/5
f 22/34/5 21/33/5 23/35/5
f 23/35/5 9/17/5 20/32/5
f 20/32/5 24/36/5 23/35/5
f 5/19/5 7/24/5 9/17/5
f 18/37/6 19/38/6 25/39/6
f 25/39/6 26/40/6 18/37/6
f 13/41/7 18/42/7 26/43/7
f 26/43/7 27/44/7 13/41/7
f 16/45/8 13/46/8 27/47/8
f 27/47/8 28/48/8 16/45/8
f 19/49/9 16/50/9 28/51/9
f 28/51/9 25/52/9 19/49/9
f 14/53/10 15/54/10 29/55/10
f 29/55/10 30/56/10 14/53/10
f 11/57/11 14/58/11 30/59/11
f 30/59/11 31/60/11 11/57/11
f 12/61/12 11/62/12 31/63/12
f 31/63/12 32/64/12 12/61/12
f 15/65/13 12/66/13 32/67/13
f 32/67/13 29/68/13 15/65/13
f 33/69/14 22/70/14 24/71/14
f 24/71/14 34/72/14 33/69/14
f 34/73/13 24/74/13 20/75/13
f 20/75/13 35/76/13 34/73/13
f 36/77/15 17/78/15 22/79/15
f 22/79/15 33/80/15 36/77/15
f 35/81/16 20/82/16 17/83/16
f 17/83/16 36/84/16 35/81/16
f 37/85/17 38/86/17 21/87/17
f 21/87/17 10/88/17 37/85/17
f 9/89/18 39/90/18 40/91/18
f 41/92/18 42/93/18 39/90/18
f 41/92/18 37/94/18 43/95/18
f 37/94/18 10/96/18 40/91/18
f 39/90/18 9/89/18 41/92/18
f 40/91/18 43/95/18 37/94/18
f 43/95/18 42/93/18 41/92/18
f 40/91/18 10/96/18 9/89/18
f 44/97/19 43/98/19 40/99/19
f 40/99/19 45/100/19 44/97/19
f 46/101/20 39/102/20 42/103/20
f 42/103/20 47/104/20 46/101/20
f 48/105/21 49/106/21 46/107/21
f 46/107/21 47/108/21 48/105/21
f 50/109/21 44/110/21 45/111/21
f 45/111/21 51/112/21 50/109/21
f 51/113/22 52/114/22 53/115/22
f 53/115/22 50/116/22 51/113/22
f 53/117/23 52/118/23 54/119/23
f 54/119/23 55/120/23 53/117/23
f 54/121/22 56/122/22 57/123/22
f 57/123/22 55/124/22 54/121/22
f 23/125/24 21/126/24 56/127/24
f 38/128/24 57/129/24 56/127/24
f 58/130/24 59/131/24 57/129/24
f 58/130/24 23/125/24 60/132/24
f 56/127/24 21/126/24 38/128/24
f 60/132/24 59/131/24 58/130/24
f 57/129/24 38/128/24 58/130/24
f 56/127/24 60/132/24 23/125/24
f 61/133/25 28/134/25 29/135/25
f 29/135/25 32/136/25 61/133/25
f 32/136/25 3/137/25 61/133/25
f 61/133/25 25/138/25 28/134/25
f 61/133/25 35/139/25 25/138/25
f 28/134/25 27/140/25 30/141/25
f 51/142/25 31/143/25 30/141/25
f 61/133/25 34/144/25 35/139/25
f 35/139/25 36/145/25 26/146/25
f 51/142/25 27/140/25 26/146/25
f 30/141/25 27/140/25 51/142/25
f 56/147/25 54/148/25 62/149/25
f 26/146/25 36/145/25 51/142/25
f 32/136/25 4/150/25 3/137/25
f 54/148/25 33/151/25 62/149/25
f 62/149/25 33/151/25 34/144/25
f 8/152/25 6/153/25 46/154/25
f 40/155/25 39/156/25 46/154/25
f 30/141/25 29/135/25 28/134/25
f 34/144/25 61/133/25 62/149/25
f 52/157/25 36/145/25 33/151/25
f 46/154/25 6/153/25 40/155/25
f 49/158/25 61/133/25 3/137/25
f 62/149/25 60/159/25 56/147/25
f 52/157/25 51/142/25 36/145/25
f 4/150/25 51/142/25 45/160/25
f 3/137/25 8/152/25 49/158/25
f 33/151/25 54/148/25 52/157/25
f 45/160/25 6/153/25 4/150/25
f 26/146/25 25/138/25 35/139/25
f 4/150/25 31/143/25 51/142/25
f 4/150/25 32/136/25 31/143/25
f 46/154/25 49/158/25 8/152/25
f 45/160/25 40/155/25 6/153/25
f 63/161/26 59/162/26 60/163/26
f 60/163/26 62/164/26 63/161/26
f 64/165/27 63/166/27 62/167/27
f 62/167/27 61/168/27 64/165/27
f 65/169/28 41/170/28 48/171/28
f 41/170/28 9/172/28 49/173/28
f 49/173/28 48/171/28 41/170/28
f 9/172/28 23/174/28 61/175/28
f 61/175/28 49/173/28 9/172/28
f 58/176/28 64/177/28 61/175/28
f 61/175/28 23/174/28 58/176/28
f 66/178/28 67/179/28 64/177/28
f 64/177/28 58/176/28 66/178/28
f 48/171/28 68/180/28 65/169/28
f 67/181/27 66/182/27 69/183/27
f 69/183/27 70/184/27 67/181/27
f 65/185/29 68/186/29 71/187/29
f 71/187/29 72/188/29 65/185/29
f 73/189/30 74/190/30 72/191/30
f 72/191/30 71/192/30 73/189/30
f 75/193/29 76/194/29 74/195/29
f 74/195/29 73/196/29 75/193/29
f 77/197/31 78/198/31 76/199/31
f 76/199/31 75/200/31 77/197/31
f 70/201/31 69/202/31 79/203/31
f 79/203/31 80/204/31 70/201/31
f 80/205/32 79/206/32 78/207/32
f 78/207/32 77/208/32 80/205/32
f 43/209/33 81/210/33 47/211/33
f 47/211/33 81/210/33 82/212/33
f 50/213/33 83/214/33 84/215/33
f 81/210/33 43/209/33 44/216/33
f 82/212/33 48/217/33 47/211/33
f 44/216/33 84/215/33 81/210/33
f 84/215/33 44/216/33 50/213/33
f 85/218/33 84/215/33 83/214/33
f 83/214/33 86/219/33 85/218/33
f 48/217/33 82/212/33 85/218/33
f 85/218/33 86/219/33 48/217/33
f 50/213/33 87/220/33 88/221/33
f 88/221/33 83/214/33 50/213/33
f 89/222/33 88/221/33 87/220/33
f 87/220/33 90/223/33 89/222/33
f 48/217/33 86/219/33 89/222/33
f 89/222/33 90/223/33 48/217/33
f 50/213/33 75/224/33 91/225/33
f 91/225/33 87/220/33 50/213/33
f 92/226/33 91/225/33 75/224/33
f 57/227/33 59/228/33 63/229/33
f 53/230/33 55/231/33 70/232/33
f 75/224/33 73/233/33 92/226/33
f 48/217/33 90/223/33 92/226/33
f 67/234/33 70/232/33 63/229/33
f 63/229/33 55/231/33 57/227/33
f 80/235/33 77/236/33 75/224/33
f 70/232/33 80/235/33 53/230/33
f 68/237/33 48/217/33 73/233/33
f 92/226/33 73/233/33 48/217/33
f 63/229/33 70/232/33 55/231/33
f 80/235/33 50/213/33 53/230/33
f 47/211/33 42/238/33 43/209/33
f 75/224/33 50/213/33 80/235/33
f 63/229/33 64/239/33 67/234/33
f 73/233/33 71/240/33 68/237/33
f 41/241/34 93/242/34 94/243/34
f 41/241/34 95/244/34 96/245/34
f 96/245/34 93/242/34 41/241/34
f 97/246/34 96/245/34 95/244/34
f 95/244/34 98/247/34 97/246/34
f 37/248/34 94/243/34 97/246/34
f 97/246/34 98/247/34 37/248/34
f 41/241/34 99/249/34 100/250/34
f 100/250/34 95/244/34 41/241/34
f 101/251/34 100/250/34 99/249/34
f 99/249/34 102/252/34 101/251/34
f 37/248/34 98/247/34 101/251/34
f 79/253/34 103/254/34 76/255/34
f 74/256/34 76/255/34 103/254/34
f 101/251/34 102/252/34 37/248/34
f 65/257/34 104/258/34 99/249/34
f 103/254/34 104/258/34 74/256/34
f 65/257/34 72/259/34 74/256/34
f 99/249/34 41/241/34 65/257/34
f 74/256/34 104/258/34 65/257/34
f 58/260/34 38/261/34 69/262/34
f 38/261/34 37/248/34 79/253/34
f 76/255/34 78/263/34 79/253/34
f 37/248/34 102/252/34 103/254/34
f 79/253/34 69/262/34 38/261/34
f 103/254/34 79/253/34 37/248/34
f 94/243/34 37/248/34 41/241/34
f 69/262/34 66/264/34 58/260/34
f 93/265/35 96/266/35 85/267/35
f 85/267/35 82/268/35 93/265/35
f 94/269/36 93/270/36 82/271/36
f 82/271/36 81/272/36 94/269/36
f 97/273/37 94/274/37 81/275/37
f 81/275/37 84/276/37 97/273/37
f 96/277/38 97/278/38 84/279/38
f 84/279/38 85/280/38 96/277/38
f 99/281/39 104/282/39 92/283/39
f 92/283/39 90/284/39 99/281/39
f 102/285/40 99/286/40 90/287/40
f 90/287/40 87/288/40 102/285/40
f 103/289/41 102/290/41 87/291/41
f 87/291/41 91/292/41 103/289/41
f 104/293/42 103/294/42 91/295/42
f 91/295/42 92/296/42 104/293/42
f 95/297/43 100/298/43 89/299/43
f 89/299/43 86/300/43 95/297/43
f 98/301/44 95/302/44 86/303/44
f 86/303/44 83/304/44 98/301/44
f 101/305/45 98/306/45 83/307/45
f 83/307/45 88/308/45 101/305/45
f 100/309/46 101/310/46 88/311/46
f 88/311/46 89/312/46 100/309/46
