g Body_55_(9)
v 54 40.5 3 1 1 1
v 54 40.5 1.5 1 1 1
v 54 45 1.5 1 1 1
v 54 45 3 1 1 1
v 53.8 40.5 1.5 1 1 1
v 53.8 40.5 3 1 1 1
v 53.8 45 3 1 1 1
v 53.8 45 1.5 1 1 1
vn 1 0 0
vn -0 -1 -0
vn -1 -0 -0
vn -0 -0 1
vn -0 1 -0
vn 0 -0 -1
vt 40.5 74
vt 40.5 72.5
vt 45 72.5
vt 45 74
vt -0.75 0
vt -0.75 0.2
vt 0.75 0.2
vt 0.75 0
vt 45 74
vt 45 72.5
vt 40.5 72.5
vt 40.5 74
vt -0 -2.25
vt -0.2 -2.25
vt -0.2 2.25
vt 0 2.25
vt -0.75 0
vt -0.75 0.2
vt 0.75 0.2
vt 0.75 0
vt 0 2.25
vt 0.2 2.25
vt 0.2 -2.25
vt 0 -2.25
f 1/1/1 2/2/1 3/3/1
f 3/3/1 4/4/1 1/1/1
f 5/5/2 2/6/2 1/7/2
f 1/7/2 6/8/2 5/5/2
f 7/9/3 8/10/3 5/11/3
f 5/11/3 6/12/3 7/9/3
f 6/13/4 1/14/4 4/15/4
f 4/15/4 7/16/4 6/13/4
f 7/17/5 4/18/5 3/19/5
f 3/19/5 8/20/5 7/17/5
f 8/21/6 3/22/6 2/23/6
f 2/23/6 5/24/6 8/21/6
