g Body_54_(8)
v 54 35.5 11 1 1 1
v 54 35.5 9.5 1 1 1
v 54 40 9.5 1 1 1
v 54 40 11 1 1 1
vn 1 0 0
vt 35.5 74
vt 35.5 72.5
vt 40 72.5
vt 40 74
f 1/1/1 2/2/1 3/3/1
f 3/3/1 4/4/1 1/1/1
v 53.8 35.5 9.5 0.494118 0.494118 0.52549
v 54 35.5 9.5 0.494118 0.494118 0.52549
v 54 35.5 11 0.494118 0.494118 0.52549
v 53.8 35.5 11 0.494118 0.494118 0.52549
v 53.8 40 11 0.494118 0.494118 0.52549
v 53.8 40 9.5 0.494118 0.494118 0.52549
v 54 40 11 0.494118 0.494118 0.52549
v 54 40 9.5 0.494118 0.494118 0.52549
vn -0 -1 -0
vn -1 -0 -0
vn -0 -0 1
vn 0 1 0
vn 0 -0 -1
vt -0.75 0
vt -0.75 0.2
vt 0.75 0.2
vt 0.75 0
vt 40 74
vt 40 72.5
vt 35.5 72.5
vt 35.5 74
vt -0 -2.25
vt -0.2 -2.25
vt -0.2 2.25
vt 0 2.25
vt 74 0
vt 74 0.2
vt 72.5 0.2
vt 72.5 0
vt 0 2.25
vt 0.2 2.25
vt 0.2 -2.25
vt 0 -2.25
f 5/5/2 6/6/2 7/7/2
f 7/7/2 8/8/2 5/5/2
f 9/9/3 10/10/3 5/11/3
f 5/11/3 8/12/3 9/9/3
f 8/13/4 7/14/4 11/15/4
f 11/15/4 9/16/4 8/13/4
f 9/17/5 11/18/5 12/19/5
f 12/19/5 10/20/5 9/17/5
f 10/21/6 12/22/6 6/23/6
f 6/23/6 5/24/6 10/21/6
