g Body_07_(5)
v 33.4 22.4 48.2 0.886275 0.890196 0.890196
v 33.4 22.4 48 0.886275 0.890196 0.890196
v 33.4 23.4 48 0.886275 0.890196 0.890196
v 33.4 23.4 48.2 0.886275 0.890196 0.890196
v 34.8 23.4 48 0.886275 0.890196 0.890196
v 34.8 23.4 48.2 0.886275 0.890196 0.890196
v 34.8 22.4 48 0.886275 0.890196 0.890196
v 34.8 22.4 48.2 0.886275 0.890196 0.890196
v 29.8 22.4 48 0.886275 0.890196 0.890196
v 29.8 22.4 48.2 0.886275 0.890196 0.890196
v 29.8 46.6 48.2 0.886275 0.890196 0.890196
v 29.8 46.6 48 0.886275 0.890196 0.890196
v 54 46.6 48.2 0.886275 0.890196 0.890196
v 54 46.6 48 0.886275 0.890196 0.890196
v 54 22.4 48.2 0.886275 0.890196 0.890196
v 54 22.4 48 0.886275 0.890196 0.890196
v 38.5 44 48.2 0.886275 0.890196 0.890196
v 38.5 39 48.2 0.886275 0.890196 0.890196
v 35.4 44 48.2 0.886275 0.890196 0.890196
v 35.5 44 48.2 0.886275 0.890196 0.890196
v 35.4 39 48.2 0.886275 0.890196 0.890196
v 35.5 39 48.2 0.886275 0.890196 0.890196
v 32.4 44 48.2 0.886275 0.890196 0.890196
v 32.4 39 48.2 0.886275 0.890196 0.890196
v 35.5 39 48 0.886275 0.890196 0.890196
v 38.5 39 48 0.886275 0.890196 0.890196
v 32.4 39 48 0.886275 0.890196 0.890196
v 35.4 39 48 0.886275 0.890196 0.890196
v 32.4 44 48 0.886275 0.890196 0.890196
v 35.4 44 48 0.886275 0.890196 0.890196
v 38.5 44 48 0.886275 0.890196 0.890196
v 35.5 44 48 0.886275 0.890196 0.890196
vn 1 -0 -0
vn -0 -1 -0
vn -1 -0 0
vn 0 1 -1.22465e-16
vn 1 0 0
vn 0 -1 1.22465e-16
vn -0 1.22465e-16 1
vn 0 -1.22465e-16 -1
vn -1 0 0
vn 0 1 0
vn 1 0 -0
vn 0 -1 0
vn 0 1 -1.22465e-16
vn -1 -0 0
vt -30.8 -0.5
vt -31 -0.5
vt -31 0.5
vt -30.8 0.5
vt -30.8 -0.7
vt -31 -0.7
vt -31 0.7
vt -30.8 0.7
vt 30.8 0.5
vt 31 0.5
vt 31 -0.5
vt 30.8 -0.5
vt -0.8 -18.4
vt -0.8 -14.8
vt -1 -14.8
vt -1 -18.4
vt -0.8 12.1
vt -1 12.1
vt -1 -12.1
vt -0.8 -12.1
vt 0.8 -8
vt 1 -8
vt 1 16.2
vt 0.8 16.2
vt 1 -12.1
vt 1 12.1
vt 0.8 12.1
vt 0.8 -12.1
vt -0.8 5.8
vt -1 5.8
vt -1 -13.4
vt -0.8 -13.4
vt 26.6 -27.6
vt 11.1 -25
vt 11.1 -20
vt 8 -25
vt 8.1 -25
vt 8 -20
vt 8.1 -20
vt 26.6 -3.4
vt 2.4 -27.6
vt 5 -25
vt 2.4 -3.4
vt 5 -20
vt 6 -4.4
vt 6 -3.4
vt 7.4 -4.4
vt 7.4 -3.4
vt 2.4 -3.4
vt 8.1 -20
vt 6 -4.4
vt 11.1 -20
vt 7.4 -4.4
vt 5 -20
vt 8 -20
vt 26.6 -3.4
vt 7.4 -3.4
vt 2.4 -27.6
vt 5 -25
vt 26.6 -27.6
vt 8 -25
vt 6 -3.4
vt 11.1 -25
vt 8.1 -25
vt -32.8 -2.5
vt -32.8 2.5
vt -33 2.5
vt -33 -2.5
vt -33 1.5
vt -33 -1.5
vt -32.8 -1.5
vt -32.8 1.5
vt 33 -2.5
vt 33 2.5
vt 32.8 2.5
vt 32.8 -2.5
vt 33 -1.5
vt 33 1.5
vt 32.8 1.5
vt 32.8 -1.5
vt -25.8 -1.5
vt -25.8 1.5
vt -26 1.5
vt -26 -1.5
vt 25.8 2.5
vt 25.8 -2.5
vt 26 -2.5
vt 26 2.5
vt 25.8 1.5
vt 25.8 -1.5
vt 26 -1.5
vt 26 1.5
vt -25.8 2.5
vt -26 2.5
vt -26 -2.5
vt -25.8 -2.5
f 1/1/1 2/2/1 3/3/1
f 3/3/1 4/4/1 1/1/1
f 4/5/2 3/6/2 5/7/2
f 5/7/2 6/8/2 4/5/2
f 6/9/3 5/10/3 7/11/3
f 7/11/3 8/12/3 6/9/3
f 9/13/2 2/14/2 1/15/2
f 1/15/2 10/16/2 9/13/2
f 9/17/3 10/18/3 11/19/3
f 11/19/3 12/20/3 9/17/3
f 12/21/4 11/22/4 13/23/4
f 13/23/4 14/24/4 12/21/4
f 13/25/5 15/26/5 16/27/5
f 16/27/5 14/28/5 13/25/5
f 16/29/6 15/30/6 8/31/6
f 8/31/6 7/32/6 16/29/6
f 13/33/7 17/34/7 18/35/7
f 13/33/7 19/36/7 20/37/7
f 20/37/7 17/34/7 13/33/7
f 19/36/7 21/38/7 22/39/7
f 22/39/7 20/37/7 19/36/7
f 15/40/7 18/35/7 22/39/7
f 22/39/7 21/38/7 15/40/7
f 11/41/7 23/42/7 19/36/7
f 19/36/7 13/33/7 11/41/7
f 11/41/7 10/43/7 24/44/7
f 21/38/7 24/44/7 4/45/7
f 10/43/7 1/46/7 4/45/7
f 24/44/7 23/42/7 11/41/7
f 4/45/7 24/44/7 10/43/7
f 15/40/7 21/38/7 6/47/7
f 4/45/7 6/47/7 21/38/7
f 18/35/7 15/40/7 13/33/7
f 6/47/7 8/48/7 15/40/7
f 9/49/8 25/50/8 3/51/8
f 25/50/8 26/52/8 5/53/8
f 9/49/8 27/54/8 28/55/8
f 5/53/8 3/51/8 25/50/8
f 16/56/8 7/57/8 5/53/8
f 28/55/8 25/50/8 9/49/8
f 12/58/8 29/59/8 27/54/8
f 14/60/8 16/56/8 26/52/8
f 5/53/8 26/52/8 16/56/8
f 27/54/8 9/49/8 12/58/8
f 12/58/8 14/60/8 30/61/8
f 3/51/8 2/62/8 9/49/8
f 30/61/8 29/59/8 12/58/8
f 14/60/8 31/63/8 32/64/8
f 28/55/8 32/64/8 25/50/8
f 32/64/8 30/61/8 14/60/8
f 32/64/8 28/55/8 30/61/8
f 26/52/8 31/63/8 14/60/8
f 18/65/9 17/66/9 31/67/9
f 31/67/9 26/68/9 18/65/9
f 26/69/10 25/70/10 22/71/10
f 22/71/10 18/72/10 26/69/10
f 25/73/11 32/74/11 20/75/11
f 20/75/11 22/76/11 25/73/11
f 32/77/12 31/78/12 17/79/12
f 17/79/12 20/80/12 32/77/12
f 29/81/12 30/82/12 19/83/12
f 19/83/12 23/84/12 29/81/12
f 27/85/11 29/86/11 23/87/11
f 23/87/11 24/88/11 27/85/11
f 28/89/13 27/90/13 24/91/13
f 24/91/13 21/92/13 28/89/13
f 28/93/14 21/94/14 19/95/14
f 19/95/14 30/96/14 28/93/14
