g Body_07_(6)
v 33.4 23.4 56 0.886275 0.890196 0.890196
v 33.4 23.4 56.2 0.886275 0.890196 0.890196
v 33.4 22.4 56.2 0.886275 0.890196 0.890196
v 33.4 22.4 56 0.886275 0.890196 0.890196
v 34.8 23.4 56 0.886275 0.890196 0.890196
v 34.8 23.4 56.2 0.886275 0.890196 0.890196
v 34.8 22.4 56 0.886275 0.890196 0.890196
v 34.8 22.4 56.2 0.886275 0.890196 0.890196
v 29.8 22.4 56 0.886275 0.890196 0.890196
v 29.8 22.4 56.2 0.886275 0.890196 0.890196
v 29.8 46.6 56.2 0.886275 0.890196 0.890196
v 29.8 46.6 56 0.886275 0.890196 0.890196
v 54 46.6 56.2 0.886275 0.890196 0.890196
v 54 46.6 56 0.886275 0.890196 0.890196
v 54 22.4 56.2 0.886275 0.890196 0.890196
v 54 22.4 56 0.886275 0.890196 0.890196
v 32.4 44 56 0.886275 0.890196 0.890196
v 32.4 39 56 0.886275 0.890196 0.890196
v 35.5 44 56 0.886275 0.890196 0.890196
v 35.4 44 56 0.886275 0.890196 0.890196
v 38.5 44 56 0.886275 0.890196 0.890196
v 38.5 39 56 0.886275 0.890196 0.890196
v 35.4 39 56 0.886275 0.890196 0.890196
v 35.5 39 56 0.886275 0.890196 0.890196
v 32.4 44 56.2 0.886275 0.890196 0.890196
v 35.4 44 56.2 0.886275 0.890196 0.890196
v 35.5 44 56.2 0.886275 0.890196 0.890196
v 38.5 44 56.2 0.886275 0.890196 0.890196
v 35.5 39 56.2 0.886275 0.890196 0.890196
v 32.4 39 56.2 0.886275 0.890196 0.890196
v 35.4 39 56.2 0.886275 0.890196 0.890196
v 38.5 39 56.2 0.886275 0.890196 0.890196
vn 1 -0 -0
vn -0 -1 -0
vn -1 -0 0
vn 0 1 0
vn 1 0 -0
vn 0 -1 0
vn -0 -0 -1
vn 0 0 1
vn -1 0 0
vn 0 1 0
vn 1 0 -0
vn 0 -1 0
vn -1 -0 0
vn -0 1 -0
vt -23 0.5
vt -22.8 0.5
vt -22.8 -0.5
vt -23 -0.5
vt -23 0.7
vt -22.8 0.7
vt -22.8 -0.7
vt -23 -0.7
vt 23 -0.5
vt 22.8 -0.5
vt 22.8 0.5
vt 23 0.5
vt 1 -8
vt 1 -4.4
vt 0.8 -4.4
vt 0.8 -8
vt -0.8 12.1
vt -1 12.1
vt -1 -12.1
vt -0.8 -12.1
vt -0.8 5.8
vt -1 5.8
vt -1 -18.4
vt -0.8 -18.4
vt 0.8 -12.1
vt 1 -12.1
vt 1 12.1
vt 0.8 12.1
vt 1 16.2
vt 0.8 16.2
vt 0.8 -3
vt 1 -3
vt 2.4 -3.4
vt 5 -6
vt 5 -11
vt 8.1 -6
vt 8 -6
vt 26.6 -3.4
vt 11.1 -6
vt 7.4 -26.6
vt 11.1 -11
vt 8 -11
vt 8.1 -11
vt 6 -26.6
vt 2.4 -27.6
vt 26.6 -27.6
vt 7.4 -27.6
vt 6 -27.6
vt 2.4 -3.4
vt 5 -6
vt 8 -6
vt 8.1 -6
vt 11.1 -6
vt 8.1 -11
vt 6 -26.6
vt 5 -11
vt 8 -11
vt 7.4 -26.6
vt 11.1 -11
vt 26.6 -3.4
vt 26.6 -27.6
vt 2.4 -27.6
vt 6 -27.6
vt 7.4 -27.6
vt -24.8 -2.5
vt -24.8 2.5
vt -25 2.5
vt -25 -2.5
vt -24.8 -1.5
vt -24.8 1.5
vt -25 1.5
vt -25 -1.5
vt 24.8 2.5
vt 24.8 -2.5
vt 25 -2.5
vt 25 2.5
vt 24.8 1.5
vt 24.8 -1.5
vt 25 -1.5
vt 25 1.5
vt -30 2.5
vt -29.8 2.5
vt -29.8 -2.5
vt -30 -2.5
vt -30 1.5
vt -29.8 1.5
vt -29.8 -1.5
vt -30 -1.5
vt 30 -2.5
vt 29.8 -2.5
vt 29.8 2.5
vt 30 2.5
vt 30 -1.5
vt 29.8 -1.5
vt 29.8 1.5
vt 30 1.5
f 1/1/1 2/2/1 3/3/1
f 3/3/1 4/4/1 1/1/1
f 5/5/2 6/6/2 2/7/2
f 2/7/2 1/8/2 5/5/2
f 7/9/3 8/10/3 6/11/3
f 6/11/3 5/12/3 7/9/3
f 9/13/2 4/14/2 3/15/2
f 3/15/2 10/16/2 9/13/2
f 11/17/3 12/18/3 9/19/3
f 9/19/3 10/20/3 11/17/3
f 13/21/4 14/22/4 12/23/4
f 12/23/4 11/24/4 13/21/4
f 15/25/5 16/26/5 14/27/5
f 14/27/5 13/28/5 15/25/5
f 16/29/6 15/30/6 8/31/6
f 8/31/6 7/32/6 16/29/6
f 12/33/7 17/34/7 18/35/7
f 12/33/7 19/36/7 20/37/7
f 12/33/7 14/38/7 21/39/7
f 14/38/7 5/40/7 22/41/7
f 5/40/7 23/42/7 24/43/7
f 23/42/7 5/40/7 1/44/7
f 20/37/7 17/34/7 12/33/7
f 20/37/7 19/36/7 24/43/7
f 22/41/7 21/39/7 14/38/7
f 1/44/7 18/35/7 23/42/7
f 24/43/7 23/42/7 20/37/7
f 24/43/7 22/41/7 5/40/7
f 9/45/7 18/35/7 1/44/7
f 21/39/7 19/36/7 12/33/7
f 18/35/7 9/45/7 12/33/7
f 16/46/7 7/47/7 5/40/7
f 5/40/7 14/38/7 16/46/7
f 1/44/7 4/48/7 9/45/7
f 11/49/8 25/50/8 26/51/8
f 11/49/8 27/52/8 28/53/8
f 26/51/8 27/52/8 11/49/8
f 26/51/8 29/54/8 27/52/8
f 11/49/8 2/55/8 30/56/8
f 31/57/8 30/56/8 2/55/8
f 6/58/8 32/59/8 29/54/8
f 30/56/8 25/50/8 11/49/8
f 29/54/8 31/57/8 6/58/8
f 2/55/8 6/58/8 31/57/8
f 29/54/8 26/51/8 31/57/8
f 13/60/8 28/53/8 32/59/8
f 15/61/8 13/60/8 6/58/8
f 32/59/8 6/58/8 13/60/8
f 28/53/8 13/60/8 11/49/8
f 10/62/8 3/63/8 2/55/8
f 2/55/8 11/49/8 10/62/8
f 6/58/8 8/64/8 15/61/8
f 32/65/9 28/66/9 21/67/9
f 21/67/9 22/68/9 32/65/9
f 29/69/10 32/70/10 22/71/10
f 22/71/10 24/72/10 29/69/10
f 27/73/11 29/74/11 24/75/11
f 24/75/11 19/76/11 27/73/11
f 28/77/12 27/78/12 19/79/12
f 19/79/12 21/80/12 28/77/12
f 17/81/11 25/82/11 30/83/11
f 30/83/11 18/84/11 17/81/11
f 20/85/12 26/86/12 25/87/12
f 25/87/12 17/88/12 20/85/12
f 23/89/13 31/90/13 26/91/13
f 26/91/13 20/92/13 23/89/13
f 18/93/14 30/94/14 31/95/14
f 31/95/14 23/96/14 18/93/14
