g Body_26_(5)
v 54 40.5 42 0.333333 0.239216 0.184314
v 54 40.5 40.5 0.333333 0.239216 0.184314
v 52.9 40.5 40.5 0.333333 0.239216 0.184314
v 52.9 40.5 42 0.333333 0.239216 0.184314
v 54 45 42 0.333333 0.239216 0.184314
v 52.9 45 42 0.333333 0.239216 0.184314
v 54 45 40.5 0.333333 0.239216 0.184314
v 52.9 45 40.5 0.333333 0.239216 0.184314
v 54 46.6 40 0.333333 0.239216 0.184314
v 54 46.6 48 0.333333 0.239216 0.184314
v 54 40 42 0.333333 0.239216 0.184314
v 54 40 40.5 0.333333 0.239216 0.184314
v 54 35 42 0.333333 0.239216 0.184314
v 54 35.5 42 0.333333 0.239216 0.184314
v 54 35.5 40.5 0.333333 0.239216 0.184314
v 54 35 40.5 0.333333 0.239216 0.184314
v 54 30 42 0.333333 0.239216 0.184314
v 54 30.5 42 0.333333 0.239216 0.184314
v 54 30.5 40.5 0.333333 0.239216 0.184314
v 54 22.4 48 0.333333 0.239216 0.184314
v 54 25.5 42 0.333333 0.239216 0.184314
v 54 22.4 40 0.333333 0.239216 0.184314
v 54 25.5 40.5 0.333333 0.239216 0.184314
v 54 30 40.5 0.333333 0.239216 0.184314
v 52.9 25.5 42 0.333333 0.239216 0.184314
v 52.9 25.5 40.5 0.333333 0.239216 0.184314
v 52.9 30 40.5 0.333333 0.239216 0.184314
v 52.9 30 42 0.333333 0.239216 0.184314
v 52.9 30.5 40.5 0.333333 0.239216 0.184314
v 52.9 30.5 42 0.333333 0.239216 0.184314
v 52.9 35 42 0.333333 0.239216 0.184314
v 52.9 35 40.5 0.333333 0.239216 0.184314
v 52.9 35.5 40.5 0.333333 0.239216 0.184314
v 52.9 35.5 42 0.333333 0.239216 0.184314
v 52.9 40 42 0.333333 0.239216 0.184314
v 52.9 40 40.5 0.333333 0.239216 0.184314
v 42.4 46.6 48 0.333333 0.239216 0.184314
v 42.4 22.4 48 0.333333 0.239216 0.184314
v 52.9 46.6 40.5 0.333333 0.239216 0.184314
v 52.9 46.6 43 0.333333 0.239216 0.184314
v 42.4 46.6 40 0.333333 0.239216 0.184314
v 42.9 46.6 40.5 0.333333 0.239216 0.184314
v 42.9 46.6 43 0.333333 0.239216 0.184314
v 42.9 45.5 43 0.333333 0.239216 0.184314
v 52.9 45.5 43 0.333333 0.239216 0.184314
v 52.9 45.5 40.5 0.333333 0.239216 0.184314
v 42.9 45.5 40.5 0.333333 0.239216 0.184314
v 42.9 45.5 40 0.333333 0.239216 0.184314
v 52.9 45.5 40 0.333333 0.239216 0.184314
v 42.9 45.5 47.5 0.333333 0.239216 0.184314
v 52.9 45.5 47.5 0.333333 0.239216 0.184314
v 52.9 23.5 47.5 0.333333 0.239216 0.184314
v 42.9 23.5 47.5 0.333333 0.239216 0.184314
v 52.9 23.5 43 0.333333 0.239216 0.184314
v 42.9 23.5 43 0.333333 0.239216 0.184314
v 52.9 22.4 43 0.333333 0.239216 0.184314
v 42.9 22.4 43 0.333333 0.239216 0.184314
v 42.4 22.4 40 0.333333 0.239216 0.184314
v 42.9 22.4 40.5 0.333333 0.239216 0.184314
v 52.9 22.4 40.5 0.333333 0.239216 0.184314
v 52.9 23.5 40 0.333333 0.239216 0.184314
v 52.9 23.5 40.5 0.333333 0.239216 0.184314
v 42.9 23.5 40.5 0.333333 0.239216 0.184314
v 42.9 23.5 40 0.333333 0.239216 0.184314
v 42.4 29 40 0.333333 0.239216 0.184314
v 42.4 25.4 40 0.333333 0.239216 0.184314
v 42.9 25.4 40 0.333333 0.239216 0.184314
v 42.9 29 40 0.333333 0.239216 0.184314
v 42.4 25.4 42.3 0.333333 0.239216 0.184314
v 42.9 25.4 42.3 0.333333 0.239216 0.184314
v 42.9 29 40.5 0.333333 0.239216 0.184314
v 42.4 29 40.5 0.333333 0.239216 0.184314
v 42.9 30 40.5 0.333333 0.239216 0.184314
v 42.4 30 40.5 0.333333 0.239216 0.184314
v 42.9 30 42 0.333333 0.239216 0.184314
v 42.4 30 42 0.333333 0.239216 0.184314
v 42.9 29 42 0.333333 0.239216 0.184314
v 42.4 29 42 0.333333 0.239216 0.184314
v 42.4 29 42.3 0.333333 0.239216 0.184314
v 42.9 29 42.3 0.333333 0.239216 0.184314
v 42.9 40.5 42 0.333333 0.239216 0.184314
v 42.9 45 42 0.333333 0.239216 0.184314
v 42.9 45 40.5 0.333333 0.239216 0.184314
v 42.9 40 42 0.333333 0.239216 0.184314
v 42.9 40.5 40.5 0.333333 0.239216 0.184314
v 42.9 40 40.5 0.333333 0.239216 0.184314
v 42.9 35 42 0.333333 0.239216 0.184314
v 42.9 35.5 42 0.333333 0.239216 0.184314
v 42.9 35.5 40.5 0.333333 0.239216 0.184314
v 42.9 35 40.5 0.333333 0.239216 0.184314
v 42.9 30.5 42 0.333333 0.239216 0.184314
v 42.9 30.5 40.5 0.333333 0.239216 0.184314
v 42.4 45 40.5 0.333333 0.239216 0.184314
v 42.4 45 42 0.333333 0.239216 0.184314
v 42.4 40 40.5 0.333333 0.239216 0.184314
v 42.4 40.5 40.5 0.333333 0.239216 0.184314
v 42.4 40.5 42 0.333333 0.239216 0.184314
v 42.4 40 42 0.333333 0.239216 0.184314
v 42.4 35 40.5 0.333333 0.239216 0.184314
v 42.4 35.5 40.5 0.333333 0.239216 0.184314
v 42.4 35.5 42 0.333333 0.239216 0.184314
v 42.4 35 42 0.333333 0.239216 0.184314
v 42.4 30.5 42 0.333333 0.239216 0.184314
v 42.4 30.5 40.5 0.333333 0.239216 0.184314
vn 0 1 0
vn 0 0 -1
vn 0 -1 0
vn 0 -1.57898e-15 1
vn 1 0 -0
vn -0 1 -0
vn -0 -0 1
vn 0 -0 -1
vn -0 -1 -0
vn 0 1 0
vn 0 0 -1
vn 0 -1 0
vn 0 -1.57898e-15 1
vn 0 1 0
vn 0 0 -1
vn 0 -1 0
vn -0 0 1
vn 0 1 0
vn -0 -0 -1
vn -0 -0 1
vn 0 -1 0
vn -0 -0 -1
vn 0 1 0
vn 0 -1 0
vn -1 0 0
vn -0 -0 1
vn 0 1 0
vn -0 -0 -1
vn -0 -1 -0
vn -0 -0 1
vn 0 -0 -1
vn -0 -1 -0
vn 1 0 -0
vn -1 0 0
vn 0 -1.57898e-15 1
vn 0 -1 0
vn 0 0 -1
vn 0 1 0
vn 0 -1.57898e-15 1
vn 0 -1 0
vn 0 0 -1
vn 0 1 0
vn -0 0 1
vn 0 -1 0
vn 0 0 -1
vn 0 1 0
vt 0.75 13.6
vt -0.75 13.6
vt -0.75 12.5
vt 0.75 12.5
vt -13.6 2.25
vt -13.6 -2.25
vt -12.5 -2.25
vt -12.5 2.25
vt 0.75 13.6
vt -0.75 13.6
vt -0.75 12.5
vt 0.75 12.5
vt 2.25 13.6
vt -2.25 13.6
vt -2.25 12.5
vt 2.25 12.5
vt 8 12.1
vt 0 12.1
vt 6 10.5
vt 6 5.5
vt 6 6
vt 7.5 6
vt 7.5 5.5
vt 7.5 10.5
vt 6 0.5
vt 6 1
vt 7.5 1
vt 7.5 0.5
vt 6 -4.5
vt 6 -4
vt 7.5 -4
vt -0 -12.1
vt 6 -9
vt 8 -12.1
vt 7.5 -9
vt 7.5 -4.5
vt -0.75 12.5
vt -0.75 13.6
vt 0.75 13.6
vt 0.75 12.5
vt -12.5 -2.25
vt -13.6 -2.25
vt -13.6 2.25
vt -12.5 2.25
vt 12.5 2.25
vt 13.6 2.25
vt 13.6 -2.25
vt 12.5 -2.25
vt -0.75 12.5
vt -0.75 13.6
vt 0.75 13.6
vt 0.75 12.5
vt 0.75 13.6
vt -0.75 13.6
vt -0.75 12.5
vt 0.75 12.5
vt -13.6 2.25
vt -13.6 -2.25
vt -12.5 -2.25
vt -12.5 2.25
vt 0.75 13.6
vt -0.75 13.6
vt -0.75 12.5
vt 0.75 12.5
vt 2.25 13.6
vt -2.25 13.6
vt -2.25 12.5
vt 2.25 12.5
vt 0.75 13.6
vt -0.75 13.6
vt -0.75 12.5
vt 0.75 12.5
vt -13.6 2.25
vt -13.6 -2.25
vt -12.5 -2.25
vt -12.5 2.25
vt 0.75 13.6
vt -0.75 13.6
vt -0.75 12.5
vt 0.75 12.5
vt 13.6 -2.25
vt 13.6 2.25
vt 12.5 2.25
vt 12.5 -2.25
vt 15 48.6
vt 15 24.4
vt 26.6 24.4
vt 26.6 48.6
vt -8 6.1
vt -7.5 5
vt -5 5
vt -8 -5.5
vt -7.5 -5
vt 0 -5.5
vt -5 -5
vt 0 6.1
vt -5 -95.4
vt -5 -94.3
vt 5 -94.3
vt 5 -95.4
vt -5 -95.4
vt -5 -94.3
vt 5 -94.3
vt 5 -95.4
vt 7.5 -5
vt 7.5 5
vt 7 5
vt 7 -5
vt -0 -5
vt 4.5 -5
vt 4.5 5
vt 0 5
vt 25.5 47.5
vt 25.5 25.5
vt 15.5 25.5
vt 15.5 47.5
vt 0 -5
vt 0 5
vt -4.5 5
vt -4.5 -5
vt 5 -117.4
vt 5 -118.5
vt -5 -118.5
vt -5 -117.4
vt 8 6.1
vt 0 6.1
vt 5 5
vt -0 -5.5
vt 5 -5
vt 8 -5.5
vt 7.5 -5
vt 7.5 5
vt -7.5 -11
vt -7 0.5
vt -7 1
vt -7 5.5
vt -7 6
vt -7 -4
vt -7 -4.5
vt 0 -11
vt -5.5 -4.5
vt -5.5 -9
vt -5.5 -4
vt 0 11
vt -5.5 0.5
vt -5.5 1
vt -5.5 5.5
vt -7 -9
vt -4.5 -11
vt -7 -11
vt -7 10.5
vt -5.5 10.5
vt -7 11
vt -4.5 12.1
vt -7 12.1
vt -5.5 6
vt -7 -12.1
vt -4.5 -12.1
vt -7.5 11
vt -4.5 11
vt 5 -117.4
vt 5 -118.5
vt -5 -118.5
vt -5 -117.4
vt -7.5 -5
vt -7 -5
vt -7 5
vt -7.5 5
vt 15 31
vt 15 48.6
vt 15.5 47.5
vt 26.6 48.6
vt 25.5 47.5
vt 26.6 24.4
vt 25.5 25.5
vt 15 24.4
vt 15.5 25.5
vt 15 27.4
vt 15.5 27.4
vt 15.5 31
vt 1.15 -1.9
vt 1.15 -2.4
vt -1.15 -2.4
vt -1.15 -1.9
vt -1.15 -2.4
vt -1.15 -1.9
vt -0.65 -1.9
vt -0.65 -2.4
vt -2.5 2.25
vt -2 2.25
vt -2 1.25
vt -2.5 1.25
vt 0.75 2.5
vt 0.75 2
vt -0.75 2
vt -0.75 2.5
vt 2.5 1.25
vt 2 1.25
vt 2 2.25
vt 2.5 2.25
vt -1.9 -1.8
vt -2.4 -1.8
vt -2.4 1.8
vt -1.9 1.8
vt 1.15 -1.9
vt 1.15 -2.4
vt 0.85 -2.4
vt 0.85 -1.9
vt 5.5 6
vt 5.5 10.5
vt 4.5 11
vt 4.5 12.1
vt 7 11
vt 7 10.5
vt 7.5 11
vt 0 11
vt 5.5 5.5
vt 7 6
vt 7 5.5
vt 5.5 0.5
vt 5.5 1
vt 7 1
vt 7 0.5
vt 5.5 -4.5
vt 5.5 -4
vt -0 -11
vt 4.5 -11
vt 5.2 -9.1
vt 7 -4
vt 5.2 -5.5
vt 5.5 -5.5
vt 7 -4.5
vt 7.5 -9.1
vt 7 -11
vt 4.5 -12.1
vt 7 -12.1
vt 7.5 -5.5
vt 7 12.1
vt 7.5 -11
vt 7 -5.5
vt -8 12.1
vt -7.5 10.5
vt -6 10.5
vt -7.5 5.5
vt -7.5 6
vt -6 6
vt -6 5.5
vt 0 12.1
vt -7.5 0.5
vt -7.5 1
vt -6 1
vt -6 0.5
vt -5.7 -5.5
vt -6 -4
vt -6 -4.5
vt -7.5 -4.5
vt -8 -5.5
vt -7.5 -4
vt -7.5 -5.5
vt -8 -12.1
vt 0 -12.1
vt -5.7 -9.1
vt -6 -5.5
vt -8 -9.1
vt -2.25 2
vt 2.25 2
vt 2.25 2.5
vt -2.25 2.5
vt -0.75 2
vt 0.75 2
vt 0.75 2.5
vt -0.75 2.5
vt -2 -2.25
vt -2 2.25
vt -2.5 2.25
vt -2.5 -2.25
vt -0.75 2
vt 0.75 2
vt 0.75 2.5
vt -0.75 2.5
vt -2.25 2
vt 2.25 2
vt 2.25 2.5
vt -2.25 2.5
vt -0.75 2
vt 0.75 2
vt 0.75 2.5
vt -0.75 2.5
vt -2 -2.25
vt -2 2.25
vt -2.5 2.25
vt -2.5 -2.25
vt -0.75 2
vt 0.75 2
vt 0.75 2.5
vt -0.75 2.5
vt 2 2.25
vt 2 -2.25
vt 2.5 -2.25
vt 2.5 2.25
vt -0.75 2
vt 0.75 2
vt 0.75 2.5
vt -0.75 2.5
vt -2 -2.25
vt -2 2.25
vt -2.5 2.25
vt -2.5 -2.25
vt -0.75 2
vt 0.75 2
vt 0.75 2.5
vt -0.75 2.5
f 1/1/1 2/2/1 3/3/1
f 3/3/1 4/4/1 1/1/1
f 5/5/2 1/6/2 4/7/2
f 4/7/2 6/8/2 5/5/2
f 7/9/3 5/10/3 6/11/3
f 6/11/3 8/12/3 7/9/3
f 2/13/4 7/14/4 8/15/4
f 8/15/4 3/16/4 2/13/4
f 9/17/5 10/18/5 5/19/5
f 10/18/5 11/20/5 1/21/5
f 1/21/5 5/19/5 10/18/5
f 2/22/5 1/21/5 11/20/5
f 11/20/5 12/23/5 2/22/5
f 9/17/5 7/24/5 2/22/5
f 2/22/5 12/23/5 9/17/5
f 10/18/5 13/25/5 14/26/5
f 14/26/5 11/20/5 10/18/5
f 15/27/5 14/26/5 13/25/5
f 13/25/5 16/28/5 15/27/5
f 9/17/5 12/23/5 15/27/5
f 15/27/5 16/28/5 9/17/5
f 10/18/5 17/29/5 18/30/5
f 18/30/5 13/25/5 10/18/5
f 19/31/5 18/30/5 17/29/5
f 20/32/5 21/33/5 17/29/5
f 22/34/5 23/35/5 21/33/5
f 17/29/5 24/36/5 19/31/5
f 9/17/5 16/28/5 19/31/5
f 21/33/5 20/32/5 22/34/5
f 22/34/5 9/17/5 24/36/5
f 19/31/5 24/36/5 9/17/5
f 24/36/5 23/35/5 22/34/5
f 17/29/5 10/18/5 20/32/5
f 5/19/5 7/24/5 9/17/5
f 25/37/6 21/38/6 23/39/6
f 23/39/6 26/40/6 25/37/6
f 26/41/7 23/42/7 24/43/7
f 24/43/7 27/44/7 26/41/7
f 28/45/8 17/46/8 21/47/8
f 21/47/8 25/48/8 28/45/8
f 27/49/9 24/50/9 17/51/9
f 17/51/9 28/52/9 27/49/9
f 18/53/10 19/54/10 29/55/10
f 29/55/10 30/56/10 18/53/10
f 13/57/11 18/58/11 30/59/11
f 30/59/11 31/60/11 13/57/11
f 16/61/12 13/62/12 31/63/12
f 31/63/12 32/64/12 16/61/12
f 19/65/13 16/66/13 32/67/13
f 32/67/13 29/68/13 19/65/13
f 14/69/14 15/70/14 33/71/14
f 33/71/14 34/72/14 14/69/14
f 11/73/15 14/74/15 34/75/15
f 34/75/15 35/76/15 11/73/15
f 12/77/16 11/78/16 35/79/16
f 35/79/16 36/80/16 12/77/16
f 15/81/17 12/82/17 36/83/17
f 36/83/17 33/84/17 15/81/17
f 37/85/17 38/86/17 20/87/17
f 20/87/17 10/88/17 37/85/17
f 9/89/18 39/90/18 40/91/18
f 41/92/18 42/93/18 39/90/18
f 41/92/18 37/94/18 43/95/18
f 37/94/18 10/96/18 40/91/18
f 39/90/18 9/89/18 41/92/18
f 40/91/18 43/95/18 37/94/18
f 43/95/18 42/93/18 41/92/18
f 40/91/18 10/96/18 9/89/18
f 44/97/19 43/98/19 40/99/19
f 40/99/19 45/100/19 44/97/19
f 46/101/20 39/102/20 42/103/20
f 42/103/20 47/104/20 46/101/20
f 48/105/21 49/106/21 46/107/21
f 46/107/21 47/108/21 48/105/21
f 50/109/21 44/110/21 45/111/21
f 45/111/21 51/112/21 50/109/21
f 51/113/22 52/114/22 53/115/22
f 53/115/22 50/116/22 51/113/22
f 53/117/23 52/118/23 54/119/23
f 54/119/23 55/120/23 53/117/23
f 54/121/22 56/122/22 57/123/22
f 57/123/22 55/124/22 54/121/22
f 22/125/24 20/126/24 56/127/24
f 38/128/24 57/129/24 56/127/24
f 58/130/24 59/131/24 57/129/24
f 58/130/24 22/125/24 60/132/24
f 56/127/24 20/126/24 38/128/24
f 60/132/24 59/131/24 58/130/24
f 57/129/24 38/128/24 58/130/24
f 56/127/24 60/132/24 22/125/24
f 61/133/25 32/134/25 33/135/25
f 33/135/25 36/136/25 61/133/25
f 36/136/25 3/137/25 61/133/25
f 61/133/25 29/138/25 32/134/25
f 61/133/25 27/139/25 29/138/25
f 52/140/25 28/141/25 25/142/25
f 27/139/25 28/141/25 30/143/25
f 51/144/25 31/145/25 30/143/25
f 32/134/25 31/145/25 34/146/25
f 51/144/25 35/147/25 34/146/25
f 61/133/25 26/148/25 27/139/25
f 52/140/25 51/144/25 28/141/25
f 30/143/25 28/141/25 51/144/25
f 34/146/25 31/145/25 51/144/25
f 54/149/25 25/142/25 62/150/25
f 8/151/25 6/152/25 46/153/25
f 40/154/25 39/155/25 46/153/25
f 30/143/25 29/138/25 27/139/25
f 36/136/25 4/156/25 3/137/25
f 60/157/25 56/158/25 54/149/25
f 26/148/25 61/133/25 62/150/25
f 46/153/25 6/152/25 40/154/25
f 49/159/25 61/133/25 3/137/25
f 34/146/25 33/135/25 32/134/25
f 62/150/25 25/142/25 26/148/25
f 4/156/25 51/144/25 45/160/25
f 3/137/25 8/151/25 49/159/25
f 62/150/25 60/157/25 54/149/25
f 45/160/25 6/152/25 4/156/25
f 25/142/25 54/149/25 52/140/25
f 4/156/25 35/147/25 51/144/25
f 4/156/25 36/136/25 35/147/25
f 46/153/25 49/159/25 8/151/25
f 45/160/25 40/154/25 6/152/25
f 63/161/26 59/162/26 60/163/26
f 60/163/26 62/164/26 63/161/26
f 64/165/27 63/166/27 62/167/27
f 62/167/27 61/168/27 64/165/27
f 65/169/28 41/170/28 48/171/28
f 41/170/28 9/172/28 49/173/28
f 49/173/28 48/171/28 41/170/28
f 9/172/28 22/174/28 61/175/28
f 61/175/28 49/173/28 9/172/28
f 58/176/28 64/177/28 61/175/28
f 61/175/28 22/174/28 58/176/28
f 66/178/28 67/179/28 64/177/28
f 64/177/28 58/176/28 66/178/28
f 48/171/28 68/180/28 65/169/28
f 67/181/27 66/182/27 69/183/27
f 69/183/27 70/184/27 67/181/27
f 65/185/29 68/186/29 71/187/29
f 71/187/29 72/188/29 65/185/29
f 73/189/30 74/190/30 72/191/30
f 72/191/30 71/192/30 73/189/30
f 75/193/29 76/194/29 74/195/29
f 74/195/29 73/196/29 75/193/29
f 77/197/31 78/198/31 76/199/31
f 76/199/31 75/200/31 77/197/31
f 70/201/31 69/202/31 79/203/31
f 79/203/31 80/204/31 70/201/31
f 80/205/32 79/206/32 78/207/32
f 78/207/32 77/208/32 80/205/32
f 81/209/33 82/210/33 44/211/33
f 43/212/33 82/210/33 47/213/33
f 83/214/33 48/215/33 47/213/33
f 50/216/33 84/217/33 81/209/33
f 47/213/33 82/210/33 83/214/33
f 82/210/33 43/212/33 44/211/33
f 44/211/33 50/216/33 81/209/33
f 85/218/33 81/209/33 84/217/33
f 84/217/33 86/219/33 85/218/33
f 48/215/33 83/214/33 85/218/33
f 85/218/33 86/219/33 48/215/33
f 50/216/33 87/220/33 88/221/33
f 88/221/33 84/217/33 50/216/33
f 89/222/33 88/221/33 87/220/33
f 87/220/33 90/223/33 89/222/33
f 48/215/33 86/219/33 89/222/33
f 89/222/33 90/223/33 48/215/33
f 50/216/33 75/224/33 91/225/33
f 53/226/33 55/227/33 70/228/33
f 91/225/33 87/220/33 50/216/33
f 92/229/33 91/225/33 75/224/33
f 80/230/33 77/231/33 75/224/33
f 70/228/33 80/230/33 53/226/33
f 75/224/33 73/232/33 92/229/33
f 48/215/33 90/223/33 92/229/33
f 67/233/33 55/227/33 63/234/33
f 57/235/33 59/236/33 63/234/33
f 80/230/33 50/216/33 53/226/33
f 68/237/33 48/215/33 73/232/33
f 92/229/33 73/232/33 48/215/33
f 63/234/33 55/227/33 57/235/33
f 55/227/33 67/233/33 70/228/33
f 47/213/33 42/238/33 43/212/33
f 75/224/33 50/216/33 80/230/33
f 63/234/33 64/239/33 67/233/33
f 73/232/33 71/240/33 68/237/33
f 41/241/34 93/242/34 94/243/34
f 41/241/34 95/244/34 96/245/34
f 96/245/34 93/242/34 41/241/34
f 97/246/34 96/245/34 95/244/34
f 95/244/34 98/247/34 97/246/34
f 37/248/34 94/243/34 97/246/34
f 97/246/34 98/247/34 37/248/34
f 41/241/34 99/249/34 100/250/34
f 100/250/34 95/244/34 41/241/34
f 101/251/34 100/250/34 99/249/34
f 99/249/34 102/252/34 101/251/34
f 37/248/34 98/247/34 101/251/34
f 79/253/34 103/254/34 76/255/34
f 74/256/34 76/255/34 103/254/34
f 101/251/34 102/252/34 37/248/34
f 65/257/34 104/258/34 99/249/34
f 103/254/34 104/258/34 74/256/34
f 65/257/34 72/259/34 74/256/34
f 99/249/34 41/241/34 65/257/34
f 74/256/34 104/258/34 65/257/34
f 58/260/34 38/261/34 69/262/34
f 38/261/34 37/248/34 79/253/34
f 76/255/34 78/263/34 79/253/34
f 37/248/34 102/252/34 103/254/34
f 79/253/34 69/262/34 38/261/34
f 103/254/34 79/253/34 37/248/34
f 94/243/34 37/248/34 41/241/34
f 69/262/34 66/264/34 58/260/34
f 93/265/35 96/266/35 85/267/35
f 85/267/35 83/268/35 93/265/35
f 94/269/36 93/270/36 83/271/36
f 83/271/36 82/272/36 94/269/36
f 97/273/37 94/274/37 82/275/37
f 82/275/37 81/276/37 97/273/37
f 96/277/38 97/278/38 81/279/38
f 81/279/38 85/280/38 96/277/38
f 99/281/39 104/282/39 92/283/39
f 92/283/39 90/284/39 99/281/39
f 102/285/40 99/286/40 90/287/40
f 90/287/40 87/288/40 102/285/40
f 103/289/41 102/290/41 87/291/41
f 87/291/41 91/292/41 103/289/41
f 104/293/42 103/294/42 91/295/42
f 91/295/42 92/296/42 104/293/42
f 95/297/43 100/298/43 89/299/43
f 89/299/43 86/300/43 95/297/43
f 98/301/44 95/302/44 86/303/44
f 86/303/44 84/304/44 98/301/44
f 101/305/45 98/306/45 84/307/45
f 84/307/45 88/308/45 101/305/45
f 100/309/46 101/310/46 88/311/46
f 88/311/46 89/312/46 100/309/46
