g Body_26_(7)
v 52.9 25.5 58 0.337255 0.243137 0.184314
v 54 25.5 58 0.337255 0.243137 0.184314
v 54 25.5 56.5 0.337255 0.243137 0.184314
v 52.9 25.5 56.5 0.337255 0.243137 0.184314
v 52.9 30 58 0.337255 0.243137 0.184314
v 54 30 58 0.337255 0.243137 0.184314
v 54 30 56.5 0.337255 0.243137 0.184314
v 52.9 30 56.5 0.337255 0.243137 0.184314
v 54 46.6 56 0.337255 0.243137 0.184314
v 54 46.6 64 0.337255 0.243137 0.184314
v 54 45 58 0.337255 0.243137 0.184314
v 54 40 58 0.337255 0.243137 0.184314
v 54 40.5 58 0.337255 0.243137 0.184314
v 54 40.5 56.5 0.337255 0.243137 0.184314
v 54 40 56.5 0.337255 0.243137 0.184314
v 54 45 56.5 0.337255 0.243137 0.184314
v 54 35 58 0.337255 0.243137 0.184314
v 54 35.5 58 0.337255 0.243137 0.184314
v 54 35.5 56.5 0.337255 0.243137 0.184314
v 54 35 56.5 0.337255 0.243137 0.184314
v 54 30.5 58 0.337255 0.243137 0.184314
v 54 30.5 56.5 0.337255 0.243137 0.184314
v 54 22.4 64 0.337255 0.243137 0.184314
v 54 22.4 56 0.337255 0.243137 0.184314
v 52.9 30.5 56.5 0.337255 0.243137 0.184314
v 52.9 30.5 58 0.337255 0.243137 0.184314
v 52.9 35 58 0.337255 0.243137 0.184314
v 52.9 35 56.5 0.337255 0.243137 0.184314
v 52.9 35.5 56.5 0.337255 0.243137 0.184314
v 52.9 35.5 58 0.337255 0.243137 0.184314
v 52.9 40 58 0.337255 0.243137 0.184314
v 52.9 40 56.5 0.337255 0.243137 0.184314
v 52.9 40.5 56.5 0.337255 0.243137 0.184314
v 52.9 40.5 58 0.337255 0.243137 0.184314
v 52.9 45 58 0.337255 0.243137 0.184314
v 52.9 45 56.5 0.337255 0.243137 0.184314
v 42.4 46.6 64 0.337255 0.243137 0.184314
v 42.4 22.4 64 0.337255 0.243137 0.184314
v 52.9 46.6 59 0.337255 0.243137 0.184314
v 52.9 46.6 56.5 0.337255 0.243137 0.184314
v 42.4 46.6 56 0.337255 0.243137 0.184314
v 42.9 46.6 56.5 0.337255 0.243137 0.184314
v 42.9 46.6 59 0.337255 0.243137 0.184314
v 42.9 45.5 59 0.337255 0.243137 0.184314
v 52.9 45.5 59 0.337255 0.243137 0.184314
v 52.9 45.5 56.5 0.337255 0.243137 0.184314
v 42.9 45.5 56.5 0.337255 0.243137 0.184314
v 42.9 45.5 56 0.337255 0.243137 0.184314
v 52.9 45.5 56 0.337255 0.243137 0.184314
v 42.9 45.5 63.5 0.337255 0.243137 0.184314
v 52.9 45.5 63.5 0.337255 0.243137 0.184314
v 52.9 23.5 63.5 0.337255 0.243137 0.184314
v 42.9 23.5 63.5 0.337255 0.243137 0.184314
v 52.9 23.5 59 0.337255 0.243137 0.184314
v 42.9 23.5 59 0.337255 0.243137 0.184314
v 52.9 22.4 59 0.337255 0.243137 0.184314
v 42.9 22.4 59 0.337255 0.243137 0.184314
v 42.4 22.4 56 0.337255 0.243137 0.184314
v 42.9 22.4 56.5 0.337255 0.243137 0.184314
v 52.9 22.4 56.5 0.337255 0.243137 0.184314
v 52.9 23.5 56.5 0.337255 0.243137 0.184314
v 52.9 23.5 56 0.337255 0.243137 0.184314
v 42.9 23.5 56.5 0.337255 0.243137 0.184314
v 42.9 23.5 56 0.337255 0.243137 0.184314
v 42.4 29 56 0.337255 0.243137 0.184314
v 42.4 25.4 56 0.337255 0.243137 0.184314
v 42.9 25.4 56 0.337255 0.243137 0.184314
v 42.9 29 56 0.337255 0.243137 0.184314
v 42.4 25.4 58.3 0.337255 0.243137 0.184314
v 42.9 25.4 58.3 0.337255 0.243137 0.184314
v 42.4 29 58.3 0.337255 0.243137 0.184314
v 42.9 29 58.3 0.337255 0.243137 0.184314
v 42.4 29 58 0.337255 0.243137 0.184314
v 42.9 29 58 0.337255 0.243137 0.184314
v 42.4 30 58 0.337255 0.243137 0.184314
v 42.9 30 58 0.337255 0.243137 0.184314
v 42.4 30 56.5 0.337255 0.243137 0.184314
v 42.9 30 56.5 0.337255 0.243137 0.184314
v 42.4 29 56.5 0.337255 0.243137 0.184314
v 42.9 29 56.5 0.337255 0.243137 0.184314
v 42.9 40 58 0.337255 0.243137 0.184314
v 42.9 40.5 58 0.337255 0.243137 0.184314
v 42.9 40.5 56.5 0.337255 0.243137 0.184314
v 42.9 40 56.5 0.337255 0.243137 0.184314
v 42.9 45 56.5 0.337255 0.243137 0.184314
v 42.9 35 58 0.337255 0.243137 0.184314
v 42.9 35.5 58 0.337255 0.243137 0.184314
v 42.9 35.5 56.5 0.337255 0.243137 0.184314
v 42.9 35 56.5 0.337255 0.243137 0.184314
v 42.9 30.5 58 0.337255 0.243137 0.184314
v 42.9 30.5 56.5 0.337255 0.243137 0.184314
v 42.9 45 58 0.337255 0.243137 0.184314
v 42.4 45 56.5 0.337255 0.243137 0.184314
v 42.4 45 58 0.337255 0.243137 0.184314
v 42.4 40 56.5 0.337255 0.243137 0.184314
v 42.4 40.5 56.5 0.337255 0.243137 0.184314
v 42.4 40.5 58 0.337255 0.243137 0.184314
v 42.4 40 58 0.337255 0.243137 0.184314
v 42.4 35 56.5 0.337255 0.243137 0.184314
v 42.4 35.5 56.5 0.337255 0.243137 0.184314
v 42.4 35.5 58 0.337255 0.243137 0.184314
v 42.4 35 58 0.337255 0.243137 0.184314
v 42.4 30.5 56.5 0.337255 0.243137 0.184314
v 42.4 30.5 58 0.337255 0.243137 0.184314
vn -0 1 -0
vn 0 -0 -1
vn -0 -0 1
vn -0 -1 -0
vn 1 0 -0
vn 0 1 0
vn 0 0 -1
vn 0 -1 0
vn 0 -1.57898e-15 1
vn 0 1 0
vn 0 0 -1
vn 0 -1 0
vn -0 0 1
vn 0 1 0
vn 0 0 -1
vn 0 -1 0
vn 0 -1.57898e-15 1
vn 0 1 0
vn -0 -0 -1
vn -0 -0 1
vn 0 -1 0
vn -0 -0 -1
vn 0 1 0
vn 0 -1 0
vn -1 0 0
vn -0 -0 1
vn 0 1 0
vn -0 -0 -1
vn -0 -1 -0
vn -0 -0 1
vn 1 0 -0
vn -1 0 0
vn 0 -1.57898e-15 1
vn 0 -1 0
vn 0 0 -1
vn 0 1 0
vn -0 0 1
vn 0 -1 0
vn 0 0 -1
vn 0 1 0
vn 0 -1.57898e-15 1
vn 0 -1 0
vn 0 0 -1
vn 0 1 0
vt -0.75 12.5
vt -0.75 13.6
vt 0.75 13.6
vt 0.75 12.5
vt 12.5 2.25
vt 13.6 2.25
vt 13.6 -2.25
vt 12.5 -2.25
vt -12.5 -2.25
vt -13.6 -2.25
vt -13.6 2.25
vt -12.5 2.25
vt -0.75 12.5
vt -0.75 13.6
vt 0.75 13.6
vt 0.75 12.5
vt 8 12.1
vt 0 12.1
vt 6 10.5
vt 6 5.5
vt 6 6
vt 7.5 6
vt 7.5 5.5
vt 7.5 10.5
vt 6 0.5
vt 6 1
vt 7.5 1
vt 7.5 0.5
vt 6 -4.5
vt 6 -4
vt 7.5 -4
vt 7.5 -4.5
vt -0 -12.1
vt 6 -9
vt 8 -12.1
vt 7.5 -9
vt 0.75 13.6
vt -0.75 13.6
vt -0.75 12.5
vt 0.75 12.5
vt -13.6 2.25
vt -13.6 -2.25
vt -12.5 -2.25
vt -12.5 2.25
vt 0.75 13.6
vt -0.75 13.6
vt -0.75 12.5
vt 0.75 12.5
vt 2.25 13.6
vt -2.25 13.6
vt -2.25 12.5
vt 2.25 12.5
vt 0.75 13.6
vt -0.75 13.6
vt -0.75 12.5
vt 0.75 12.5
vt -13.6 2.25
vt -13.6 -2.25
vt -12.5 -2.25
vt -12.5 2.25
vt 0.75 13.6
vt -0.75 13.6
vt -0.75 12.5
vt 0.75 12.5
vt 13.6 -2.25
vt 13.6 2.25
vt 12.5 2.25
vt 12.5 -2.25
vt 0.75 13.6
vt -0.75 13.6
vt -0.75 12.5
vt 0.75 12.5
vt -13.6 2.25
vt -13.6 -2.25
vt -12.5 -2.25
vt -12.5 2.25
vt 0.75 13.6
vt -0.75 13.6
vt -0.75 12.5
vt 0.75 12.5
vt 2.25 13.6
vt -2.25 13.6
vt -2.25 12.5
vt 2.25 12.5
vt 15 48.6
vt 15 24.4
vt 26.6 24.4
vt 26.6 48.6
vt 0 -5.5
vt 0 6.1
vt -5 5
vt -8 6.1
vt -7.5 5
vt -8 -5.5
vt -7.5 -5
vt -5 -5
vt -5 -95.4
vt -5 -94.3
vt 5 -94.3
vt 5 -95.4
vt -5 -95.4
vt -5 -94.3
vt 5 -94.3
vt 5 -95.4
vt 7.5 -5
vt 7.5 5
vt 7 5
vt 7 -5
vt -0 -5
vt 4.5 -5
vt 4.5 5
vt 0 5
vt 25.5 47.5
vt 25.5 25.5
vt 15.5 25.5
vt 15.5 47.5
vt 0 -5
vt 0 5
vt -4.5 5
vt -4.5 -5
vt 5 -117.4
vt 5 -118.5
vt -5 -118.5
vt -5 -117.4
vt -0 -5.5
vt 5 -5
vt 5 5
vt 8 -5.5
vt 7.5 -5
vt 8 6.1
vt 7.5 5
vt 0 6.1
vt -7 10.5
vt -5.5 10.5
vt -7 11
vt -4.5 12.1
vt -7 12.1
vt -7.5 11
vt -7 5.5
vt -7 6
vt -5.5 6
vt 0 11
vt -4.5 11
vt -5.5 5.5
vt -7 0.5
vt -7 1
vt -5.5 1
vt -5.5 0.5
vt -7 -4.5
vt -7 -4
vt -5.5 -4
vt -5.5 -4.5
vt 0 -11
vt -5.5 -9
vt -4.5 -11
vt -7 -11
vt -7.5 -11
vt -7 -9
vt -7 -12.1
vt -4.5 -12.1
vt 5 -117.4
vt 5 -118.5
vt -5 -118.5
vt -5 -117.4
vt -7.5 -5
vt -7 -5
vt -7 5
vt -7.5 5
vt 15 31
vt 15 48.6
vt 15.5 47.5
vt 26.6 48.6
vt 25.5 47.5
vt 26.6 24.4
vt 25.5 25.5
vt 15 24.4
vt 15.5 25.5
vt 15 27.4
vt 15.5 27.4
vt 15.5 31
vt 1.15 -1.9
vt 1.15 -2.4
vt -1.15 -2.4
vt -1.15 -1.9
vt -1.9 -1.8
vt -2.4 -1.8
vt -2.4 1.8
vt -1.9 1.8
vt 1.15 -1.9
vt 1.15 -2.4
vt 0.85 -2.4
vt 0.85 -1.9
vt 2.5 1.25
vt 2 1.25
vt 2 2.25
vt 2.5 2.25
vt 0.75 2.5
vt 0.75 2
vt -0.75 2
vt -0.75 2.5
vt -2.5 2.25
vt -2 2.25
vt -2 1.25
vt -2.5 1.25
vt -1.15 -2.4
vt -1.15 -1.9
vt -0.65 -1.9
vt -0.65 -2.4
vt 0 11
vt 5.5 5.5
vt 5.5 6
vt 7 6
vt 7 5.5
vt 7.5 11
vt 7 10.5
vt 5.5 0.5
vt 5.5 1
vt 7 1
vt 7 0.5
vt 5.5 -4.5
vt 5.5 -4
vt 7 -4
vt 7 -4.5
vt 7.5 -5.5
vt 4.5 11
vt 5.2 -5.5
vt 5.5 -5.5
vt -0 -11
vt 4.5 -11
vt 5.2 -9.1
vt 7 -12.1
vt 7 -11
vt 7.5 -9.1
vt 4.5 12.1
vt 5.5 10.5
vt 7 11
vt 4.5 -12.1
vt 7.5 -11
vt 7 12.1
vt 7 -5.5
vt -8 12.1
vt -7.5 10.5
vt -6 10.5
vt -7.5 5.5
vt -7.5 6
vt -6 6
vt -6 5.5
vt 0 12.1
vt -7.5 0.5
vt -7.5 1
vt -6 1
vt -6 0.5
vt -7.5 -4.5
vt -7.5 -4
vt -8 -12.1
vt 0 -12.1
vt -5.7 -9.1
vt -5.7 -5.5
vt -6 -4
vt -6 -4.5
vt -6 -5.5
vt -8 -5.5
vt -7.5 -5.5
vt -8 -9.1
vt -2.25 2
vt 2.25 2
vt 2.25 2.5
vt -2.25 2.5
vt -0.75 2
vt 0.75 2
vt 0.75 2.5
vt -0.75 2.5
vt -2 -2.25
vt -2 2.25
vt -2.5 2.25
vt -2.5 -2.25
vt -0.75 2
vt 0.75 2
vt 0.75 2.5
vt -0.75 2.5
vt 2 2.25
vt 2 -2.25
vt 2.5 -2.25
vt 2.5 2.25
vt -0.75 2
vt 0.75 2
vt 0.75 2.5
vt -0.75 2.5
vt -2 -2.25
vt -2 2.25
vt -2.5 2.25
vt -2.5 -2.25
vt -0.75 2
vt 0.75 2
vt 0.75 2.5
vt -0.75 2.5
vt -2.25 2
vt 2.25 2
vt 2.25 2.5
vt -2.25 2.5
vt -0.75 2
vt 0.75 2
vt 0.75 2.5
vt -0.75 2.5
vt -2 -2.25
vt -2 2.25
vt -2.5 2.25
vt -2.5 -2.25
vt -0.75 2
vt 0.75 2
vt 0.75 2.5
vt -0.75 2.5
f 1/1/1 2/2/1 3/3/1
f 3/3/1 4/4/1 1/1/1
f 5/5/2 6/6/2 2/7/2
f 2/7/2 1/8/2 5/5/2
f 4/9/3 3/10/3 7/11/3
f 7/11/3 8/12/3 4/9/3
f 8/13/4 7/14/4 6/15/4
f 6/15/4 5/16/4 8/13/4
f 9/17/5 10/18/5 11/19/5
f 10/18/5 12/20/5 13/21/5
f 13/21/5 11/19/5 10/18/5
f 14/22/5 13/21/5 12/20/5
f 12/20/5 15/23/5 14/22/5
f 9/17/5 16/24/5 14/22/5
f 14/22/5 15/23/5 9/17/5
f 10/18/5 17/25/5 18/26/5
f 18/26/5 12/20/5 10/18/5
f 19/27/5 18/26/5 17/25/5
f 17/25/5 20/28/5 19/27/5
f 9/17/5 15/23/5 19/27/5
f 19/27/5 20/28/5 9/17/5
f 10/18/5 6/29/5 21/30/5
f 21/30/5 17/25/5 10/18/5
f 22/31/5 21/30/5 6/29/5
f 6/29/5 7/32/5 22/31/5
f 9/17/5 20/28/5 22/31/5
f 22/31/5 7/32/5 9/17/5
f 23/33/5 2/34/5 6/29/5
f 24/35/5 3/36/5 2/34/5
f 24/35/5 9/17/5 7/32/5
f 6/29/5 10/18/5 23/33/5
f 7/32/5 3/36/5 24/35/5
f 2/34/5 23/33/5 24/35/5
f 11/19/5 16/24/5 9/17/5
f 21/37/6 22/38/6 25/39/6
f 25/39/6 26/40/6 21/37/6
f 17/41/7 21/42/7 26/43/7
f 26/43/7 27/44/7 17/41/7
f 20/45/8 17/46/8 27/47/8
f 27/47/8 28/48/8 20/45/8
f 22/49/9 20/50/9 28/51/9
f 28/51/9 25/52/9 22/49/9
f 18/53/10 19/54/10 29/55/10
f 29/55/10 30/56/10 18/53/10
f 12/57/11 18/58/11 30/59/11
f 30/59/11 31/60/11 12/57/11
f 15/61/12 12/62/12 31/63/12
f 31/63/12 32/64/12 15/61/12
f 19/65/13 15/66/13 32/67/13
f 32/67/13 29/68/13 19/65/13
f 13/69/14 14/70/14 33/71/14
f 33/71/14 34/72/14 13/69/14
f 11/73/15 13/74/15 34/75/15
f 34/75/15 35/76/15 11/73/15
f 16/77/16 11/78/16 35/79/16
f 35/79/16 36/80/16 16/77/16
f 14/81/17 16/82/17 36/83/17
f 36/83/17 33/84/17 14/81/17
f 37/85/17 38/86/17 23/87/17
f 23/87/17 10/88/17 37/85/17
f 37/89/18 10/90/18 39/91/18
f 9/92/18 40/93/18 39/91/18
f 39/91/18 10/90/18 9/92/18
f 41/94/18 42/95/18 40/93/18
f 40/93/18 9/92/18 41/94/18
f 41/94/18 37/89/18 43/96/18
f 43/96/18 42/95/18 41/94/18
f 39/91/18 43/96/18 37/89/18
f 44/97/19 43/98/19 39/99/19
f 39/99/19 45/100/19 44/97/19
f 46/101/20 40/102/20 42/103/20
f 42/103/20 47/104/20 46/101/20
f 48/105/21 49/106/21 46/107/21
f 46/107/21 47/108/21 48/105/21
f 50/109/21 44/110/21 45/111/21
f 45/111/21 51/112/21 50/109/21
f 51/113/22 52/114/22 53/115/22
f 53/115/22 50/116/22 51/113/22
f 53/117/23 52/118/23 54/119/23
f 54/119/23 55/120/23 53/117/23
f 54/121/22 56/122/22 57/123/22
f 57/123/22 55/124/22 54/121/22
f 38/125/24 57/126/24 56/127/24
f 58/128/24 59/129/24 57/126/24
f 57/126/24 38/125/24 58/128/24
f 58/128/24 24/130/24 60/131/24
f 24/130/24 23/132/24 56/127/24
f 60/131/24 59/129/24 58/128/24
f 56/127/24 23/132/24 38/125/24
f 56/127/24 60/131/24 24/130/24
f 36/133/25 35/134/25 46/135/25
f 39/136/25 40/137/25 46/135/25
f 46/135/25 35/134/25 39/136/25
f 49/138/25 32/139/25 33/140/25
f 33/140/25 36/133/25 49/138/25
f 34/141/25 33/140/25 32/139/25
f 34/141/25 51/142/25 45/143/25
f 32/139/25 31/144/25 34/141/25
f 45/143/25 35/134/25 34/141/25
f 34/141/25 31/144/25 51/142/25
f 46/135/25 49/138/25 36/133/25
f 49/138/25 28/145/25 29/146/25
f 29/146/25 32/139/25 49/138/25
f 30/147/25 29/146/25 28/145/25
f 28/145/25 27/148/25 30/147/25
f 51/142/25 31/144/25 30/147/25
f 30/147/25 27/148/25 51/142/25
f 49/138/25 8/149/25 25/150/25
f 25/150/25 28/145/25 49/138/25
f 26/151/25 25/150/25 8/149/25
f 8/149/25 5/152/25 26/151/25
f 51/142/25 27/148/25 26/151/25
f 52/153/25 5/152/25 1/154/25
f 54/155/25 1/154/25 61/156/25
f 26/151/25 5/152/25 51/142/25
f 62/157/25 4/158/25 8/149/25
f 52/153/25 51/142/25 5/152/25
f 60/159/25 56/160/25 54/155/25
f 8/149/25 49/138/25 62/157/25
f 4/158/25 62/157/25 61/156/25
f 61/156/25 60/159/25 54/155/25
f 61/156/25 1/154/25 4/158/25
f 45/143/25 39/136/25 35/134/25
f 1/154/25 54/155/25 52/153/25
f 63/161/26 59/162/26 60/163/26
f 60/163/26 61/164/26 63/161/26
f 64/165/27 63/166/27 61/167/27
f 61/167/27 62/168/27 64/165/27
f 65/169/28 41/170/28 48/171/28
f 41/170/28 9/172/28 49/173/28
f 49/173/28 48/171/28 41/170/28
f 9/172/28 24/174/28 62/175/28
f 62/175/28 49/173/28 9/172/28
f 58/176/28 64/177/28 62/175/28
f 62/175/28 24/174/28 58/176/28
f 66/178/28 67/179/28 64/177/28
f 64/177/28 58/176/28 66/178/28
f 48/171/28 68/180/28 65/169/28
f 67/181/27 66/182/27 69/183/27
f 69/183/27 70/184/27 67/181/27
f 70/185/28 69/186/28 71/187/28
f 71/187/28 72/188/28 70/185/28
f 72/189/29 71/190/29 73/191/29
f 73/191/29 74/192/29 72/189/29
f 74/193/28 73/194/28 75/195/28
f 75/195/28 76/196/28 74/193/28
f 76/197/29 75/198/29 77/199/29
f 77/199/29 78/200/29 76/197/29
f 78/201/30 77/202/30 79/203/30
f 79/203/30 80/204/30 78/201/30
f 65/205/29 68/206/29 80/207/29
f 80/207/29 79/208/29 65/205/29
f 50/209/31 81/210/31 82/211/31
f 83/212/31 82/211/31 81/210/31
f 81/210/31 84/213/31 83/212/31
f 48/214/31 85/215/31 83/212/31
f 83/212/31 84/213/31 48/214/31
f 50/209/31 86/216/31 87/217/31
f 87/217/31 81/210/31 50/209/31
f 88/218/31 87/217/31 86/216/31
f 86/216/31 89/219/31 88/218/31
f 48/214/31 84/213/31 88/218/31
f 88/218/31 89/219/31 48/214/31
f 50/209/31 76/220/31 90/221/31
f 90/221/31 86/216/31 50/209/31
f 91/222/31 90/221/31 76/220/31
f 76/220/31 78/223/31 91/222/31
f 48/214/31 89/219/31 91/222/31
f 68/224/31 48/214/31 78/223/31
f 91/222/31 78/223/31 48/214/31
f 82/211/31 44/225/31 50/209/31
f 72/226/31 74/227/31 76/220/31
f 53/228/31 55/229/31 70/230/31
f 59/231/31 63/232/31 55/229/31
f 76/220/31 50/209/31 72/226/31
f 70/230/31 72/226/31 53/228/31
f 67/233/31 70/230/31 63/232/31
f 63/232/31 70/230/31 55/229/31
f 43/234/31 92/235/31 47/236/31
f 72/226/31 50/209/31 53/228/31
f 55/229/31 57/237/31 59/231/31
f 43/234/31 44/225/31 92/235/31
f 63/232/31 64/238/31 67/233/31
f 44/225/31 82/211/31 92/235/31
f 47/236/31 42/239/31 43/234/31
f 85/215/31 48/214/31 47/236/31
f 47/236/31 92/235/31 85/215/31
f 78/223/31 80/240/31 68/224/31
f 41/241/32 93/242/32 94/243/32
f 41/241/32 95/244/32 96/245/32
f 96/245/32 93/242/32 41/241/32
f 97/246/32 96/245/32 95/244/32
f 95/244/32 98/247/32 97/246/32
f 37/248/32 94/243/32 97/246/32
f 97/246/32 98/247/32 37/248/32
f 41/241/32 99/249/32 100/250/32
f 100/250/32 95/244/32 41/241/32
f 101/251/32 100/250/32 99/249/32
f 99/249/32 102/252/32 101/251/32
f 37/248/32 98/247/32 101/251/32
f 101/251/32 102/252/32 37/248/32
f 41/241/32 77/253/32 103/254/32
f 58/255/32 38/256/32 69/257/32
f 38/256/32 37/248/32 71/258/32
f 103/254/32 99/249/32 41/241/32
f 104/259/32 103/254/32 77/253/32
f 71/258/32 69/257/32 38/256/32
f 71/258/32 37/248/32 75/260/32
f 77/253/32 75/260/32 104/259/32
f 37/248/32 102/252/32 104/259/32
f 75/260/32 73/261/32 71/258/32
f 104/259/32 75/260/32 37/248/32
f 94/243/32 37/248/32 41/241/32
f 65/262/32 79/263/32 77/253/32
f 77/253/32 41/241/32 65/262/32
f 69/257/32 66/264/32 58/255/32
f 99/265/33 103/266/33 91/267/33
f 91/267/33 89/268/33 99/265/33
f 102/269/34 99/270/34 89/271/34
f 89/271/34 86/272/34 102/269/34
f 104/273/35 102/274/35 86/275/35
f 86/275/35 90/276/35 104/273/35
f 103/277/36 104/278/36 90/279/36
f 90/279/36 91/280/36 103/277/36
f 95/281/37 100/282/37 88/283/37
f 88/283/37 84/284/37 95/281/37
f 98/285/38 95/286/38 84/287/38
f 84/287/38 81/288/38 98/285/38
f 101/289/39 98/290/39 81/291/39
f 81/291/39 87/292/39 101/289/39
f 100/293/40 101/294/40 87/295/40
f 87/295/40 88/296/40 100/293/40
f 93/297/41 96/298/41 83/299/41
f 83/299/41 85/300/41 93/297/41
f 94/301/42 93/302/42 85/303/42
f 85/303/42 92/304/42 94/301/42
f 97/305/43 94/306/43 92/307/43
f 92/307/43 82/308/43 97/305/43
f 96/309/44 97/310/44 82/311/44
f 82/311/44 83/312/44 96/309/44
