g Body_26
v 45.4 46.6 0 0.333333 0.239216 0.184314
v 45.4 45.5 0 0.333333 0.239216 0.184314
v 45.4 45.5 2.5 0.333333 0.239216 0.184314
v 45.4 46.6 2.5 0.333333 0.239216 0.184314
v 52.9 45.5 2.5 0.333333 0.239216 0.184314
v 52.9 46.6 2.5 0.333333 0.239216 0.184314
v 52.9 45.5 0 0.333333 0.239216 0.184314
v 54 46.6 0 0.333333 0.239216 0.184314
v 54 22.4 0 0.333333 0.239216 0.184314
v 52.9 23.5 0 0.333333 0.239216 0.184314
v 45.4 22.4 0 0.333333 0.239216 0.184314
v 45.4 23.5 0 0.333333 0.239216 0.184314
v 45.4 22.4 2.5 0.333333 0.239216 0.184314
v 45.4 23.5 2.5 0.333333 0.239216 0.184314
v 52.9 22.4 2.5 0.333333 0.239216 0.184314
v 52.9 23.5 2.5 0.333333 0.239216 0.184314
v 42.4 46.6 3 0.333333 0.239216 0.184314
v 42.4 46.6 8 0.333333 0.239216 0.184314
v 42.9 46.6 5 0.333333 0.239216 0.184314
v 54 46.6 8 0.333333 0.239216 0.184314
v 52.9 46.6 5 0.333333 0.239216 0.184314
v 42.9 46.6 3 0.333333 0.239216 0.184314
v 42.9 22.4 3 0.333333 0.239216 0.184314
v 42.4 22.4 3 0.333333 0.239216 0.184314
v 42.4 22.4 8 0.333333 0.239216 0.184314
v 54 22.4 8 0.333333 0.239216 0.184314
v 52.9 22.4 5 0.333333 0.239216 0.184314
v 42.9 22.4 5 0.333333 0.239216 0.184314
v 52.9 23.5 5 0.333333 0.239216 0.184314
v 42.9 23.5 5 0.333333 0.239216 0.184314
v 42.9 45.5 5 0.333333 0.239216 0.184314
v 52.9 45.5 5 0.333333 0.239216 0.184314
v 42.9 23.5 7.5 0.333333 0.239216 0.184314
v 42.9 45.5 7.5 0.333333 0.239216 0.184314
v 52.9 45.5 7.5 0.333333 0.239216 0.184314
v 52.9 23.5 7.5 0.333333 0.239216 0.184314
v 52.9 35.5 1.5 0.333333 0.239216 0.184314
v 52.9 40 1.5 0.333333 0.239216 0.184314
v 52.9 35 3 0.333333 0.239216 0.184314
v 52.9 30.5 3 0.333333 0.239216 0.184314
v 52.9 35 1.5 0.333333 0.239216 0.184314
v 52.9 35.5 3 0.333333 0.239216 0.184314
v 52.9 40 3 0.333333 0.239216 0.184314
v 52.9 30 3 0.333333 0.239216 0.184314
v 52.9 30.5 1.5 0.333333 0.239216 0.184314
v 52.9 40.5 1.5 0.333333 0.239216 0.184314
v 52.9 25.5 1.5 0.333333 0.239216 0.184314
v 52.9 30 1.5 0.333333 0.239216 0.184314
v 52.9 40.5 3 0.333333 0.239216 0.184314
v 52.9 25.5 3 0.333333 0.239216 0.184314
v 52.9 45 1.5 0.333333 0.239216 0.184314
v 52.9 45 3 0.333333 0.239216 0.184314
v 54 45 3 0.333333 0.239216 0.184314
v 54 40 3 0.333333 0.239216 0.184314
v 54 40.5 3 0.333333 0.239216 0.184314
v 54 40.5 1.5 0.333333 0.239216 0.184314
v 54 40 1.5 0.333333 0.239216 0.184314
v 54 45 1.5 0.333333 0.239216 0.184314
v 54 35 3 0.333333 0.239216 0.184314
v 54 35.5 3 0.333333 0.239216 0.184314
v 54 35.5 1.5 0.333333 0.239216 0.184314
v 54 35 1.5 0.333333 0.239216 0.184314
v 54 30.5 1.5 0.333333 0.239216 0.184314
v 54 30 1.5 0.333333 0.239216 0.184314
v 54 30.5 3 0.333333 0.239216 0.184314
v 54 25.5 3 0.333333 0.239216 0.184314
v 54 30 3 0.333333 0.239216 0.184314
v 54 25.5 1.5 0.333333 0.239216 0.184314
vn -1 -0 0
vn -0 -0 1
vn 0 -1 0
vn -0 -0 -1
vn -1 -0 0
vn -0 -0 1
vn 0 1 0
vn 0 0 -1
vn 0 0 1
vn -1 0 0
vn 0 -1 0
vn -0 -0 -1
vn 1 0 -0
vn 0 -1 0
vn 0 1 0
vn -1 0 0
vn 1 0 -0
vn -0 0 1
vn 0 1 0
vn 0 0 -1
vn 0 -1 0
vn -0 0 1
vn 0 1 0
vn 0 0 -1
vn 0 -1 0
vn -0 -0 1
vn -0 1 -0
vn 0 -0 -1
vn -0 -1 -0
vn -0 0 1
vn 0 1 0
vt 1.5 -34.4
vt 1.5 -35.5
vt -1 -35.5
vt -1 -34.4
vt -5 -95.4
vt -5 -94.3
vt 2.5 -94.3
vt 2.5 -95.4
vt 7.5 -2.5
vt 7.5 5
vt 5 5
vt 5 -2.5
vt 18 48.6
vt 26.6 48.6
vt 25.5 47.5
vt 26.6 24.4
vt 25.5 25.5
vt 18 24.4
vt 18 25.5
vt 18 47.5
vt -1 -58.6
vt -1 -57.5
vt 1.5 -57.5
vt 1.5 -58.6
vt -5 -118.5
vt -5 -117.4
vt 2.5 -117.4
vt 2.5 -118.5
vt -7.5 -2.5
vt -5 -2.5
vt -5 5
vt -7.5 5
vt -5 -5.5
vt 0 -5.5
vt -3 -5
vt 0 6.1
vt -3 5
vt -8 6.1
vt -5.5 5
vt -8 -2.5
vt -5.5 -2.5
vt -5 -5
vt -2.5 -20.35
vt -2 -20.35
vt -2 3.85
vt -2.5 3.85
vt 15 48.6
vt 15 24.4
vt 26.6 24.4
vt 26.6 48.6
vt 0 12.1
vt -5 12.1
vt -5 -12.1
vt 0 -12.1
vt 8 -2.5
vt 8 6.1
vt 5.5 5
vt 0 6.1
vt 3 5
vt -0 -5.5
vt 3 -5
vt 5 -5.5
vt 5 -5
vt 5.5 -2.5
vt 5 -117.4
vt 5 -118.5
vt -5 -118.5
vt -5 -117.4
vt -5 -95.4
vt -5 -94.3
vt 5 -94.3
vt 5 -95.4
vt 4.5 -12.1
vt 2.5 11
vt 2.5 -11
vt -0 -11
vt 0 11
vt 4.5 12.1
vt 2.5 12.1
vt 2.5 -12.1
vt 25.5 47.5
vt 25.5 25.5
vt 15.5 25.5
vt 15.5 47.5
vt -0 -5
vt 2.5 -5
vt 2.5 5
vt 0 5
vt 0 -5
vt 0 5
vt -2.5 5
vt -2.5 -5
vt -7.5 -11
vt -6 1
vt -6 5.5
vt 0 11
vt -4.5 0.5
vt -4.5 -4
vt -6 0.5
vt -4.5 1
vt -4.5 5.5
vt -4.5 -4.5
vt -6 -4
vt -6 6
vt -6 -9
vt -6 -4.5
vt -2.5 -12.1
vt -2.5 -11
vt -5 -11
vt -4.5 6
vt -4.5 -9
vt -5 11
vt -7.5 11
vt -6 10.5
vt -2.5 12.1
vt -5 12.1
vt 0 -11
vt -4.5 10.5
vt -5 -12.1
vt -2.5 11
vt 8 12.1
vt 0 12.1
vt 5 10.5
vt 5 5.5
vt 5 6
vt 6.5 6
vt 6.5 5.5
vt 6.5 10.5
vt 5 0.5
vt 5 1
vt 6.5 1
vt 6.5 0.5
vt 6.5 -4
vt 6.5 -4.5
vt -0 -12.1
vt 5 -4
vt 5 -9
vt 5 -4.5
vt 8 -12.1
vt 6.5 -9
vt 13.6 -2.25
vt 13.6 2.25
vt 12.5 2.25
vt 12.5 -2.25
vt 0.75 13.6
vt -0.75 13.6
vt -0.75 12.5
vt 0.75 12.5
vt -13.6 2.25
vt -13.6 -2.25
vt -12.5 -2.25
vt -12.5 2.25
vt 0.75 13.6
vt -0.75 13.6
vt -0.75 12.5
vt 0.75 12.5
vt 13.6 -2.25
vt 13.6 2.25
vt 12.5 2.25
vt 12.5 -2.25
vt 0.75 13.6
vt -0.75 13.6
vt -0.75 12.5
vt 0.75 12.5
vt -13.6 2.25
vt -13.6 -2.25
vt -12.5 -2.25
vt -12.5 2.25
vt 0.75 13.6
vt -0.75 13.6
vt -0.75 12.5
vt 0.75 12.5
vt -12.5 -2.25
vt -13.6 -2.25
vt -13.6 2.25
vt -12.5 2.25
vt -0.75 12.5
vt -0.75 13.6
vt 0.75 13.6
vt 0.75 12.5
vt 12.5 2.25
vt 13.6 2.25
vt 13.6 -2.25
vt 12.5 -2.25
vt -0.75 12.5
vt -0.75 13.6
vt 0.75 13.6
vt 0.75 12.5
vt -13.6 2.25
vt -13.6 -2.25
vt -12.5 -2.25
vt -12.5 2.25
vt 0.75 13.6
vt -0.75 13.6
vt -0.75 12.5
vt 0.75 12.5
vt 13.6 -2.25
vt 13.6 2.25
vt 12.5 2.25
vt 12.5 -2.25
vt 0.75 13.6
vt -0.75 13.6
vt -0.75 12.5
vt 0.75 12.5
f 1/1/1 2/2/1 3/3/1
f 3/3/1 4/4/1 1/1/1
f 5/5/2 6/6/2 4/7/2
f 4/7/2 3/8/2 5/5/2
f 2/9/3 7/10/3 5/11/3
f 5/11/3 3/12/3 2/9/3
f 1/13/4 8/14/4 7/15/4
f 8/14/4 9/16/4 10/17/4
f 10/17/4 7/15/4 8/14/4
f 11/18/4 12/19/4 10/17/4
f 10/17/4 9/16/4 11/18/4
f 7/15/4 2/20/4 1/13/4
f 13/21/5 14/22/5 12/23/5
f 12/23/5 11/24/5 13/21/5
f 15/25/6 16/26/6 14/27/6
f 14/27/6 13/28/6 15/25/6
f 12/29/7 14/30/7 16/31/7
f 16/31/7 10/32/7 12/29/7
f 17/33/7 18/34/7 19/35/7
f 18/34/7 20/36/7 21/37/7
f 21/37/7 19/35/7 18/34/7
f 8/38/7 6/39/7 21/37/7
f 21/37/7 20/36/7 8/38/7
f 1/40/7 4/41/7 6/39/7
f 6/39/7 8/38/7 1/40/7
f 19/35/7 22/42/7 17/33/7
f 23/43/8 24/44/8 17/45/8
f 17/45/8 22/46/8 23/43/8
f 18/47/9 25/48/9 26/49/9
f 26/49/9 20/50/9 18/47/9
f 18/51/10 17/52/10 24/53/10
f 24/53/10 25/54/10 18/51/10
f 11/55/11 9/56/11 15/57/11
f 9/56/11 26/58/11 27/59/11
f 27/59/11 15/57/11 9/56/11
f 25/60/11 28/61/11 27/59/11
f 27/59/11 26/58/11 25/60/11
f 24/62/11 23/63/11 28/61/11
f 28/61/11 25/60/11 24/62/11
f 15/57/11 13/64/11 11/55/11
f 29/65/12 27/66/12 28/67/12
f 28/67/12 30/68/12 29/65/12
f 31/69/12 19/70/12 21/71/12
f 21/71/12 32/72/12 31/69/12
f 23/73/13 31/74/13 30/75/13
f 33/76/13 30/75/13 31/74/13
f 31/74/13 34/77/13 33/76/13
f 22/78/13 19/79/13 31/74/13
f 31/74/13 23/73/13 22/78/13
f 30/75/13 28/80/13 23/73/13
f 35/81/12 36/82/12 33/83/12
f 33/83/12 34/84/12 35/81/12
f 34/85/14 31/86/14 32/87/14
f 32/87/14 35/88/14 34/85/14
f 33/89/15 36/90/15 29/91/15
f 29/91/15 30/92/15 33/89/15
f 10/93/16 37/94/16 38/95/16
f 35/96/16 39/97/16 40/98/16
f 41/99/16 39/97/16 42/100/16
f 35/96/16 43/101/16 42/100/16
f 10/93/16 41/99/16 37/94/16
f 40/98/16 44/102/16 35/96/16
f 42/100/16 39/97/16 35/96/16
f 10/93/16 45/103/16 41/99/16
f 42/100/16 37/94/16 41/99/16
f 38/95/16 46/104/16 10/93/16
f 10/93/16 47/105/16 48/106/16
f 27/107/16 29/108/16 16/109/16
f 38/95/16 49/110/16 46/104/16
f 48/106/16 45/103/16 10/93/16
f 29/108/16 50/111/16 16/109/16
f 16/109/16 50/111/16 47/105/16
f 5/112/16 7/113/16 51/114/16
f 21/115/16 6/116/16 5/112/16
f 48/106/16 40/98/16 45/103/16
f 47/105/16 10/93/16 16/109/16
f 36/117/16 44/102/16 50/111/16
f 5/112/16 52/118/16 21/115/16
f 7/113/16 10/93/16 46/104/16
f 16/109/16 15/119/16 27/107/16
f 36/117/16 35/96/16 44/102/16
f 49/110/16 35/96/16 32/120/16
f 46/104/16 51/114/16 7/113/16
f 50/111/16 29/108/16 36/117/16
f 32/120/16 52/118/16 49/110/16
f 40/98/16 48/106/16 44/102/16
f 49/110/16 43/101/16 35/96/16
f 49/110/16 38/95/16 43/101/16
f 51/114/16 52/118/16 5/112/16
f 32/120/16 21/115/16 52/118/16
f 8/121/17 20/122/17 53/123/17
f 20/122/17 54/124/17 55/125/17
f 55/125/17 53/123/17 20/122/17
f 56/126/17 55/125/17 54/124/17
f 54/124/17 57/127/17 56/126/17
f 8/121/17 58/128/17 56/126/17
f 56/126/17 57/127/17 8/121/17
f 20/122/17 59/129/17 60/130/17
f 60/130/17 54/124/17 20/122/17
f 61/131/17 60/130/17 59/129/17
f 8/121/17 62/132/17 63/133/17
f 59/129/17 62/132/17 61/131/17
f 8/121/17 57/127/17 61/131/17
f 63/133/17 64/134/17 8/121/17
f 61/131/17 62/132/17 8/121/17
f 53/123/17 58/128/17 8/121/17
f 26/135/17 65/136/17 59/129/17
f 26/135/17 66/137/17 67/138/17
f 59/129/17 20/122/17 26/135/17
f 67/138/17 65/136/17 26/135/17
f 67/138/17 63/133/17 65/136/17
f 9/139/17 68/140/17 66/137/17
f 66/137/17 26/135/17 9/139/17
f 9/139/17 8/121/17 64/134/17
f 64/134/17 68/140/17 9/139/17
f 63/133/17 67/138/17 64/134/17
f 56/141/18 58/142/18 51/143/18
f 51/143/18 46/144/18 56/141/18
f 55/145/19 56/146/19 46/147/19
f 46/147/19 49/148/19 55/145/19
f 53/149/20 55/150/20 49/151/20
f 49/151/20 52/152/20 53/149/20
f 58/153/21 53/154/21 52/155/21
f 52/155/21 51/156/21 58/153/21
f 61/157/22 57/158/22 38/159/22
f 38/159/22 37/160/22 61/157/22
f 60/161/23 61/162/23 37/163/23
f 37/163/23 42/164/23 60/161/23
f 54/165/24 60/166/24 42/167/24
f 42/167/24 43/168/24 54/165/24
f 57/169/25 54/170/25 43/171/25
f 43/171/25 38/172/25 57/169/25
f 47/173/26 68/174/26 64/175/26
f 64/175/26 48/176/26 47/173/26
f 50/177/27 66/178/27 68/179/27
f 68/179/27 47/180/27 50/177/27
f 44/181/28 67/182/28 66/183/28
f 66/183/28 50/184/28 44/181/28
f 48/185/29 64/186/29 67/187/29
f 67/187/29 44/188/29 48/185/29
f 59/189/28 65/190/28 40/191/28
f 40/191/28 39/192/28 59/189/28
f 62/193/29 59/194/29 39/195/29
f 39/195/29 41/196/29 62/193/29
f 63/197/30 62/198/30 41/199/30
f 41/199/30 45/200/30 63/197/30
f 65/201/31 63/202/31 45/203/31
f 45/203/31 40/204/31 65/201/31
